<?xml version="1.0" standalone="no"?>
<!DOCTYPE svg PUBLIC "-//W3C//DTD SVG 1.1//EN" "http://www.w3.org/Graphics/SVG/1.1/DTD/svg11.dtd" >
<svg>
<metadata>
Created by FontForge 20110222 at Mon May 26 12:29:29 2014
 By Orthosie Webhosting
Cyrillic glyphs added by Sergiy S. Tkachenko / 4th february
</metadata>
<defs>
<font id="LeagueGothic" horiz-adv-x="375" >
  <font-face 
    font-family="League Gothic"
    font-weight="400"
    font-stretch="normal"
    units-per-em="1000"
    panose-1="0 0 0 0 0 0 0 0 0 0"
    ascent="735"
    descent="-265"
    x-height="547"
    cap-height="735"
    bbox="-32 -250 777 930"
    underline-thickness="50"
    underline-position="-50"
    unicode-range="U+000D-FB02"
  />
<missing-glyph horiz-adv-x="154" 
 />
    <glyph glyph-name="fi" unicode="fi" horiz-adv-x="377" 
d="M236 0v456h-74v-456h-101v456h-51v91h51v15q0 21 1.5 52t13 59.5t37 48.5t72.5 20q14 0 27 -1t23 -3q11 -2 22 -3v-90q-6 1 -14 3q-7 1 -17 2t-23 1q-17 0 -25 -10.5t-12 -25t-4 -30v-24.5v-14h175v-547h-101z" />
    <glyph glyph-name="fl" unicode="fl" horiz-adv-x="377" 
d="M236 0v649q-7 1 -14.5 1.5t-18.5 0.5q-17 0 -25 -10.5t-12 -25t-4 -30v-24.5v-14h51v-91h-51v-456h-101v456h-51v91h51v15q0 21 1.5 52t13 59.5t37 48.5t72.5 20q14 0 27 -1t23 -3q11 -2 22 -3h80v-735h-101z" />
    <glyph glyph-name=".notdef" horiz-adv-x="154" 
 />
    <glyph glyph-name=".null" horiz-adv-x="0" 
 />
    <glyph glyph-name="nonmarkingreturn" horiz-adv-x="200" 
 />
    <glyph glyph-name="space" unicode=" " horiz-adv-x="200" 
 />
    <glyph glyph-name="space" unicode="&#xa0;" horiz-adv-x="200" 
 />
    <glyph glyph-name="quotedbl" unicode="&#x22;" horiz-adv-x="161" 
d="M43 466l-15 269h105l-15 -269h-75z" />
    <glyph glyph-name="numbersign" unicode="#" horiz-adv-x="602" 
d="M37 309h97l18 126h-96l13 95h96l28 205h96l-28 -205h127l28 205h96l-28 -205h94l-13 -95h-94l-18 -126h93l-13 -95h-93l-29 -214h-96l29 214h-127l-29 -214h-96l29 214h-97zM230 309h127l18 126h-127z" />
    <glyph glyph-name="dollar" unicode="$" horiz-adv-x="338" 
d="M200 795v-61q30 -3 50 -15.5t33.5 -31.5t21 -42.5t10.5 -48.5l-94 -12q-3 25 -12.5 43.5t-32.5 17.5q-12 0 -19.5 -7t-12 -18t-7 -25t-2.5 -29q0 -21 8 -42.5t20 -42t27 -41t29 -39.5q16 -23 34 -48.5t33 -53t24.5 -57t9.5 -61.5q0 -33 -6 -63.5t-20 -55t-37 -41
t-57 -20.5v-106h-60v108q-33 6 -55.5 22t-36.5 39t-21.5 51.5t-8.5 59.5l94 6q1 -18 4.5 -34.5t11 -29t19 -20t28.5 -7.5q13 0 21.5 7.5t13.5 20t7.5 28.5t2.5 34q0 21 -8 42.5t-20.5 42.5t-27 40.5t-27.5 37.5q-17 23 -35 49t-33 53.5t-24.5 57.5t-9.5 61q0 27 5 53.5
t17 49.5t32.5 40t50.5 24v64h60z" />
    <glyph glyph-name="percent" unicode="%" horiz-adv-x="489" 
d="M77 0l270 735h64l-267 -735h-67zM122 658q0 7 -2 13q-2 5 -5 9.5t-10 4.5q-8 0 -11.5 -4.5t-5.5 -9.5q-2 -6 -1 -13v-213q-1 -8 1 -14q4 -13 17 -13q11 0 15 13q2 6 2 14v213zM403 290q0 7 -2 13q-2 5 -5 9.5t-10 4.5q-8 0 -11.5 -4.5t-5.5 -9.5q-2 -6 -1 -13v-213
q-1 -8 1 -14q2 -5 5.5 -9.5t11.5 -4.5q7 0 10 4.5t5 9.5q2 6 2 14v213zM182 445q-1 -25 -10 -43q-8 -17 -23 -30t-44 -13q-30 0 -45.5 13t-23.5 30q-9 18 -9 43v213q0 24 9 42q8 16 23.5 29.5t45.5 13.5q29 0 44 -13.5t23 -29.5q9 -18 10 -42v-213zM463 77q-1 -25 -10 -43
q-8 -16 -23 -29t-44 -13q-30 0 -45.5 13t-23.5 29q-9 18 -9 43v213q0 24 9 43q8 16 23.5 29.5t45.5 13.5q29 0 44 -13.5t23 -29.5q9 -19 10 -43v-213z" />
    <glyph glyph-name="ampersand" unicode="&#x26;" horiz-adv-x="417" 
d="M24 154q0 62 26 114t57 99q-26 54 -39 106t-13 110q1 45 15 80q12 30 39 55t78 25t77.5 -25t37.5 -55q13 -35 14 -80q0 -48 -28.5 -101.5t-71.5 -110.5q24 -55 41 -86.5t31 -52.5q10 28 15.5 59t7.5 44l86 -16q-1 -10 -3.5 -30t-7.5 -44t-13.5 -50.5t-20.5 -50.5
q16 -18 28 -26.5t17 -10.5v-115q-4 0 -14 4t-24 12.5t-31 21t-33 30.5q-27 -31 -58 -49.5t-65 -18.5q-32 0 -59.5 13t-47 35.5t-30.5 51.5t-11 62zM238 128q-20 32 -41 66.5t-44 77.5q-8 -13 -13 -30q-5 -14 -9 -35.5t-3 -47.5q1 -32 14.5 -52.5t34.5 -20.5q20 0 33.5 12
t27.5 30zM225 586q1 19 -3 35q-3 14 -11 25t-24 11t-24 -11.5t-11 -25.5q-4 -17 -3 -37q0 -31 6.5 -59t20.5 -61q18 28 33.5 61t15.5 62z" />
    <glyph glyph-name="quotesingle" unicode="'" horiz-adv-x="151" 
d="M127 624l-55 -130h-50l35 130h-35v111h105v-111z" />
    <glyph glyph-name="parenleft" unicode="(" horiz-adv-x="274" 
d="M254 735q-36 -52 -63 -117q-24 -56 -43.5 -132.5t-19.5 -170.5t19.5 -170.5t43.5 -132.5q27 -65 63 -116l-79 -41q-40 62 -72 136q-27 63 -49 146.5t-22 177.5t22 177.5t49 146.5q32 74 72 137z" />
    <glyph glyph-name="parenright" unicode=")" horiz-adv-x="274" 
d="M99 776q39 -63 71 -137q27 -63 49.5 -146.5t22.5 -177.5t-22.5 -177.5t-49.5 -146.5q-32 -74 -71 -136l-79 41q35 51 63 116q23 56 43 132.5t20 170.5t-20 170.5t-43 132.5q-28 65 -63 117z" />
    <glyph glyph-name="asterisk" unicode="*" horiz-adv-x="331" 
d="M128 735h75l-9 -86l80 34l21 -72l-84 -17l56 -67l-64 -39l-38 74l-37 -74l-64 39l56 67l-84 17l21 72l80 -34z" />
    <glyph glyph-name="plus" unicode="+" horiz-adv-x="518" 
d="M36 401h181v169h84v-169h181v-84h-181v-169h-84v169h-181v84z" />
    <glyph glyph-name="comma" unicode="," horiz-adv-x="151" 
d="M127 0l-55 -130h-50l35 130h-35v111h105v-111z" />
    <glyph glyph-name="hyphen" unicode="-" horiz-adv-x="217" 
d="M36 317h145v-95h-145v95z" />
    <glyph glyph-name="period" unicode="." horiz-adv-x="157" 
d="M26 111h105v-111h-105v111z" />
    <glyph glyph-name="slash" unicode="/" horiz-adv-x="352" 
d="M269 735h79l-262 -807h-82z" />
    <glyph glyph-name="zero" unicode="0" horiz-adv-x="354" 
d="M321 151q-2 -45 -18 -80q-7 -15 -17.5 -29t-25.5 -25.5t-35.5 -18t-47.5 -6.5t-48 6.5t-36 18t-25 25.5t-17 29q-16 35 -18 80v433q2 44 18 79q7 15 17 29.5t25 25.5t36 18t48 7t47.5 -7t35.5 -18t25.5 -25.5t17.5 -29.5q16 -35 18 -79v-433zM213 584q0 15 -4 27
q-3 10 -10.5 18.5t-21.5 8.5t-21.5 -8.5t-10.5 -18.5q-4 -12 -4 -27v-433q0 -16 4 -27q3 -11 10.5 -19t21.5 -8t21.5 8t10.5 19q4 11 4 27v433z" />
    <glyph glyph-name="one" unicode="1" horiz-adv-x="232" 
d="M12 576v69q34 7 55.5 22t35.5 30q15 18 24 38h65v-735h-108v576h-72z" />
    <glyph glyph-name="two" unicode="2" horiz-adv-x="357" 
d="M30 502v51q0 37 6 71.5t22 60.5t44 42t72 16q41 0 69 -14.5t44.5 -39t23.5 -58t7 -71.5q0 -56 -18.5 -120.5t-45 -127t-55.5 -116.5t-50 -89h171v-107h-293v107q50 77 90 155q17 33 33 70t29 75t21.5 75t9.5 71q0 15 -1 31t-5 29t-11 21.5t-19 8.5q-11 0 -18 -7.5
t-11 -20t-5.5 -28.5t-1.5 -34v-51h-108z" />
    <glyph glyph-name="three" unicode="3" horiz-adv-x="335" 
d="M188 628h-152v107h262v-108l-87 -200q31 -14 50.5 -38.5t30 -56.5t14 -69t3.5 -75q0 -5 -1 -21t-5.5 -38t-13 -46t-24 -44.5t-39 -33.5t-57.5 -13q-51 0 -79.5 22.5t-42.5 56t-17.5 72t-3.5 69.5h106q0 -37 2 -61t6.5 -38.5t11.5 -20t17 -5.5q13 0 20 8.5t10 22t3.5 30
t0.5 32.5v65.5t-7.5 53.5t-25 37t-53.5 16v91z" />
    <glyph glyph-name="four" unicode="4" horiz-adv-x="334" 
d="M179 160h-167v95l158 480h108v-480h50v-95h-50v-160h-99v160zM104 255h75v230v22h-6l-6 -22z" />
    <glyph glyph-name="five" unicode="5" horiz-adv-x="344" 
d="M144 185q0 -56 7 -77.5t26 -21.5q17 0 25 21t8 77v164q0 23 -8.5 38.5t-25.5 15.5q-9 0 -16.5 -6t-13.5 -14.5t-9 -18t-3 -15.5h-91v387h261v-107h-168v-153q9 7 20 13q9 5 20 9t22 3q42 0 66 -20.5t36 -46.5t15 -51t3 -34v-164q0 -26 -3.5 -59t-17.5 -62.5t-42.5 -50
t-77.5 -20.5q-50 0 -78 21t-42 53.5t-17.5 71.5t-3.5 76h108v-29v0z" />
    <glyph glyph-name="six" unicode="6" horiz-adv-x="342" 
d="M314 151q0 -13 -3.5 -39.5t-17.5 -53t-42.5 -46.5t-77.5 -20q-50 0 -78 20t-42 46.5t-17.5 53t-3.5 39.5v418q0 19 3 49t17 57.5t42 47.5t79 20t79 -20t42 -47.5t17 -57.5t3 -49v-46h-108q0 37 -1 61.5t-4 38.5t-9.5 20t-18.5 6q-20 0 -26.5 -19t-6.5 -61v-131
q14 8 27 13t27 5q42 0 66 -18.5t36 -43.5t15 -51.5t3 -41.5v-150zM140 119q0 -7 7 -20t26 -13q17 0 25 13t8 20v220q0 7 -8 20t-25 13t-24.5 -11t-8.5 -19v-223z" />
    <glyph glyph-name="seven" unicode="7" horiz-adv-x="288" 
d="M166 628h-162v107h272v-108l-108 -627h-112z" />
    <glyph glyph-name="eight" unicode="8" horiz-adv-x="340" 
d="M314 157q0 -5 -1 -19t-5 -32.5t-13 -38.5t-25 -36.5t-40.5 -27.5t-59.5 -11t-59.5 11t-40.5 27.5t-25 36.5t-13 38.5t-5 32.5t-1 19v86q0 41 14 80t42 65q-25 25 -37.5 61t-12.5 74v62q0 7 2.5 32.5t16 53.5t41 50t78.5 22t78.5 -22t41 -50t16 -53.5t2.5 -32.5v-62
q0 -38 -12.5 -74t-37.5 -61q28 -26 42 -65t14 -80v-86zM209 200q0 66 -5.5 98t-33.5 32t-33.5 -32t-5.5 -98q1 -60 8.5 -84.5t30.5 -24.5q28 0 33.5 29t5.5 80zM202 547q0 51 -5.5 76t-26.5 25q-18 0 -24.5 -22t-7.5 -79q0 -58 5.5 -84.5t26.5 -26.5t26.5 26.5t5.5 84.5z
" />
    <glyph glyph-name="nine" unicode="9" horiz-adv-x="342" 
d="M28 584q0 13 3.5 39.5t17.5 53t42 46.5t78 20q49 0 77.5 -20t42.5 -46.5t17.5 -53t3.5 -39.5v-418q0 -20 -3 -49.5t-17 -57t-42 -47.5t-79 -20t-79 20t-42 47.5t-17 57t-3 49.5v46h108q0 -37 1 -61.5t4 -38.5t9.5 -20t18.5 -6q20 0 26.5 19t6.5 61v138q-14 -8 -27 -13
t-27 -5q-42 0 -66 18.5t-36 43.5t-15 51.5t-3 41.5v143zM202 616q0 7 -7 20t-26 13q-17 0 -25 -13t-8 -20v-213q0 -7 8 -20t25 -13t24.5 11t8.5 19v216z" />
    <glyph glyph-name="colon" unicode=":" horiz-adv-x="177" 
d="M36 111h105v-111h-105v111zM36 547h105v-111h-105v111z" />
    <glyph glyph-name="semicolon" unicode=";" horiz-adv-x="177" 
d="M36 547h105v-111h-105v111zM141 0l-55 -130h-50l35 130h-35v111h105v-111z" />
    <glyph glyph-name="less" unicode="&#x3c;" horiz-adv-x="517" 
d="M36 395l445 232v-97l-341 -174l341 -174v-97l-445 232v78z" />
    <glyph glyph-name="equal" unicode="=" horiz-adv-x="517" 
d="M36 317h445v-84h-445v84zM36 506h445v-84h-445v84z" />
    <glyph glyph-name="greater" unicode="&#x3e;" horiz-adv-x="517" 
d="M481 317l-445 -232v97l341 174l-341 174v97l445 -232v-78z" />
    <glyph glyph-name="question" unicode="?" horiz-adv-x="315" 
d="M97 111h105v-111h-105v111zM103 198v125q0 40 6 72.5t16 59.5t22 48.5t23 40.5q21 35 26 55q1 5 0 12.5t-4.5 15t-10.5 13t-18 5.5q-14 0 -24.5 -8t-18.5 -19.5t-13.5 -24t-7.5 -19.5l-87 41q4 12 16 33t30.5 41.5t45 35.5t61.5 14q42 -1 68 -17.5t39.5 -39t18 -45.5
t4.5 -38q0 -31 -11.5 -55.5t-27.5 -51.5l-19.5 -32.5t-19.5 -38.5t-15 -45.5t-6 -52.5v-125h-93z" />
    <glyph glyph-name="at" unicode="@" horiz-adv-x="426" 
d="M398 195h-80l-10 27q-5 -10 -13 -17q-7 -6 -17.5 -11t-24.5 -5q-40 0 -55.5 24.5t-15.5 59.5v237q0 34 15.5 58.5t55.5 24.5q14 0 24.5 -5.5t17.5 -11.5q8 -7 13 -16v22q0 8 -4 21t-14.5 25.5t-28.5 21.5t-46 9t-46 -9t-28.5 -21.5t-14.5 -25.5t-4 -21v-434q0 -9 4 -22
t14.5 -24.5t28.5 -20t46 -8.5q32 0 51 8t31 23l74 -42q-20 -27 -56.5 -48.5t-99.5 -21.5q-55 0 -90.5 18t-56 43t-28.5 51.5t-8 43.5v434q0 18 8 45.5t28.5 53t56 44t90.5 18.5t90.5 -18.5t56 -44t28.5 -53t8 -45.5v-387zM308 502q0 12 -6.5 19t-17.5 7q-23 0 -23 -26v-222
q0 -26 23 -26q11 0 17.5 6t6.5 20v222z" />
    <glyph glyph-name="A" unicode="A" horiz-adv-x="374" 
d="M10 0l111 735h132l111 -735h-105l-20 150h-104l-20 -150h-105zM193 496l-3 39h-6l-3 -39l-31 -232h74z" />
    <glyph glyph-name="B" unicode="B" horiz-adv-x="364" 
d="M40 0v735h95q48 0 85 -10t62 -33t37.5 -60t12.5 -92q0 -26 -3 -46.5t-11 -38.5t-21 -34t-32 -33q20 -11 37 -35q14 -20 26 -55t12 -90q0 -41 -8 -77.5t-27 -65t-51.5 -46t-80.5 -19.5h-133zM228 220q0 45 -9.5 68.5t-23 33.5t-27 10.5t-20.5 0.5v-226q7 0 20.5 0.5
t27 10.5t23 33.5t9.5 68.5zM228 530q0 38 -9.5 58t-23 29t-27 10t-20.5 1v-196q7 0 20.5 1t27 10t23 29t9.5 58z" />
    <glyph glyph-name="C" unicode="C" horiz-adv-x="346" 
d="M321 252v-101q-2 -45 -18 -80q-7 -15 -17.5 -29t-25.5 -25.5t-35.5 -18t-47.5 -6.5t-48 6.5t-36 18t-25 25.5t-17 29q-16 35 -18 80v433q2 44 18 79q7 15 17 29.5t25 25.5t36 18t48 7t47.5 -7t35.5 -18t25.5 -25.5t17.5 -29.5q16 -35 18 -79v-101h-101v101q0 15 -4 27
q-4 10 -12 18.5t-25 8.5q-14 0 -21.5 -8.5t-11.5 -18.5q-4 -12 -5 -27v-433q1 -16 5 -27t11.5 -19t21.5 -8q17 0 25 8t12 19t4 27v101h101z" />
    <glyph glyph-name="D" unicode="D" horiz-adv-x="372" 
d="M340 367q0 -108 -5.5 -178.5t-27 -112.5t-64.5 -59t-118 -17h-85v735h85q75 0 118 -17t64.5 -59t27 -113t5.5 -179zM148 108q28 0 44.5 6.5t24.5 33t9.5 78.5t1.5 142t-1.5 141.5t-9.5 78t-24.5 33t-44.5 6.5v-519z" />
    <glyph glyph-name="E" unicode="E" horiz-adv-x="307" 
d="M40 735h247v-111h-139v-193h100v-118h-100v-202h139v-111h-247v735z" />
    <glyph glyph-name="F" unicode="F" horiz-adv-x="301" 
d="M297 624h-149v-193h100v-111h-100v-320h-108v735h257v-111z" />
    <glyph glyph-name="G" unicode="G" horiz-adv-x="360" 
d="M213 471v113q0 15 -4 27q-3 10 -10.5 18.5t-21.5 8.5t-21.5 -8.5t-10.5 -18.5q-4 -12 -4 -27v-442q0 -16 4 -27q3 -11 10.5 -19t21.5 -8t21.5 8t10.5 19q4 11 4 27v133h-43v91h151v-366h-64l-13 35q-15 -19 -36.5 -31t-47.5 -12t-45 6.5t-32.5 18t-22.5 25.5t-15 29
q-13 35 -12 80v433q2 44 18 79q7 15 17 29.5t25 25.5t36 18t48 7t47.5 -7t35.5 -18t25.5 -25.5t17.5 -29.5q16 -35 18 -79v-113h-108z" />
    <glyph glyph-name="H" unicode="H" horiz-adv-x="380" 
d="M232 320h-84v-320h-108v735h108v-304h84v304h108v-735h-108v320z" />
    <glyph glyph-name="I" unicode="I" horiz-adv-x="188" 
d="M40 735h108v-735h-108v735z" />
    <glyph glyph-name="J" unicode="J" horiz-adv-x="207" 
d="M6 99q16 -2 29 2q11 4 20 15.5t9 36.5v582h108v-599q0 -30 -8 -57t-27 -47t-51 -31t-80 -8v106z" />
    <glyph glyph-name="K" unicode="K" 
d="M148 735v-245v-32h4l5 32l90 245h105l-99 -242l112 -493h-105l-75 320l-3 15h-3l-6 -15l-25 -60v-260h-108v735h108z" />
    <glyph glyph-name="L" unicode="L" horiz-adv-x="295" 
d="M40 735h108v-635h143v-100h-251v735z" />
    <glyph glyph-name="M" unicode="M" horiz-adv-x="484" 
d="M219 0l-69 462l-4 31h-6v-31v-462h-100v735h132l64 -336l5 -39h2l5 39l64 336h132v-735h-100v462v31h-6l-4 -31l-69 -462h-46z" />
    <glyph glyph-name="N" unicode="N" horiz-adv-x="395" 
d="M154 383l-9 34h-6v-34v-383h-99v735h96l105 -383l9 -34h6v34v383h99v-735h-96z" />
    <glyph glyph-name="O" unicode="O" horiz-adv-x="354" 
d="M321 151q-2 -45 -18 -80q-7 -15 -17.5 -29t-25.5 -25.5t-35.5 -18t-47.5 -6.5t-48 6.5t-36 18t-25 25.5t-17 29q-16 35 -18 80v433q2 44 18 79q7 15 17 29.5t25 25.5t36 18t48 7t47.5 -7t35.5 -18t25.5 -25.5t17.5 -29.5q16 -35 18 -79v-433zM213 584q0 15 -4 27
q-3 10 -10.5 18.5t-21.5 8.5t-21.5 -8.5t-10.5 -18.5q-4 -12 -4 -27v-433q0 -16 4 -27q3 -11 10.5 -19t21.5 -8t21.5 8t10.5 19q4 11 4 27v433z" />
    <glyph glyph-name="P" unicode="P" horiz-adv-x="352" 
d="M40 735h108q35 0 69 -10.5t61 -36t43.5 -68t16.5 -105.5t-16.5 -105.5t-43.5 -68t-61 -36.5t-69 -11v-294h-108v735zM148 404q25 0 41 5t25 17.5t12 33t3 51.5t-3 52.5t-12 35t-25 20t-41 6.5v-221z" />
    <glyph glyph-name="Q" unicode="Q" horiz-adv-x="356" 
d="M321 151q0 -13 -3 -28q-2 -13 -6.5 -29t-12.5 -32q7 -9 17 -16t26 -10v-92q-46 0 -71.5 17t-39.5 40q-11 -4 -24.5 -6.5t-29.5 -2.5q-27 0 -48 6.5t-36 18t-25 25.5t-17 29q-16 35 -18 80v433q2 44 18 79q7 15 17 29.5t25 25.5t36 18t48 7t47.5 -7t35.5 -18t25.5 -25.5
t17.5 -29.5q16 -35 18 -79v-433zM213 584q0 15 -4 27q-3 10 -10.5 18.5t-21.5 8.5t-21.5 -8.5t-10.5 -18.5q-4 -12 -4 -27v-433q0 -16 4 -27q3 -11 10.5 -19t21.5 -8t21.5 8t10.5 19q4 11 4 27v433z" />
    <glyph glyph-name="R" unicode="R" horiz-adv-x="361" 
d="M233 0l-56 310h-29v-310h-108v735h108q97 0 140.5 -54t43.5 -158q0 -55 -14.5 -100.5t-45.5 -66.5l69 -356h-108zM228 519q0 39 -8.5 61t-20.5 32.5t-26 13t-25 2.5v-218q11 0 25 2.5t26 13t20.5 32.5t8.5 61z" />
    <glyph glyph-name="S" unicode="S" horiz-adv-x="343" 
d="M33 571q0 30 7.5 60.5t24.5 55t44 40t65 16.5q49 1 78.5 -17.5t45.5 -48t21.5 -64t5.5 -65.5l-106 -10q0 18 -1.5 37t-6.5 34.5t-13.5 25t-21.5 9.5q-21 -1 -29 -21t-8 -52q0 -19 7.5 -38.5t19.5 -40.5t27 -43t31 -45q19 -28 37 -56t32 -56t23 -56.5t9 -58.5
q0 -37 -7 -70.5t-24 -59t-46 -40.5t-73 -15q-52 0 -83 18t-47.5 48t-21.5 68.5t-5 79.5l106 10q0 -23 1.5 -45.5t7 -40t15.5 -28.5t27 -11q24 0 34 23t10 58q0 18 -8 38.5t-20.5 42t-28 44t-30.5 45.5q-19 28 -37 56t-31.5 56.5t-22 57.5t-8.5 59z" />
    <glyph glyph-name="T" unicode="T" horiz-adv-x="316" 
d="M2 624v111h312v-111h-102v-624h-108v624h-102z" />
    <glyph glyph-name="U" unicode="U" horiz-adv-x="366" 
d="M327 735v-584q-2 -45 -18 -80q-7 -15 -17.5 -29t-25.5 -25.5t-35.5 -18t-47.5 -6.5t-48 6.5t-36 18t-25 25.5t-17 29q-16 35 -18 80v584h108v-584q0 -16 4 -27q3 -11 10.5 -19t21.5 -8t21.5 8t10.5 19q4 11 4 27v584h108z" />
    <glyph glyph-name="V" unicode="V" horiz-adv-x="350" 
d="M236 735h105l-112 -735h-108l-112 735h105l54 -404l4 -51h6l4 51z" />
    <glyph glyph-name="W" unicode="W" horiz-adv-x="506" 
d="M195 0h-84l-99 735h100l43 -382l2 -24h8l3 24l46 382h78l46 -382l3 -24h8l2 24l43 382h100l-99 -735h-84l-50 348l-6 43h-4l-6 -43z" />
    <glyph glyph-name="X" unicode="X" horiz-adv-x="360" 
d="M114 0h-106l119 386l-117 349h106l59 -186l3 -9h4l3 9l59 186h106l-117 -349l119 -386h-106l-62 219l-2 9h-4l-2 -9z" />
    <glyph glyph-name="Y" unicode="Y" horiz-adv-x="342" 
d="M167 500l3 -27h2l3 27l54 235h106l-110 -422v-313h-108v313l-110 422h106z" />
    <glyph glyph-name="Z" unicode="Z" horiz-adv-x="306" 
d="M10 116l169 512h-145v107h262v-107l-172 -521h172v-107h-286v116z" />
    <glyph glyph-name="bracketleft" unicode="[" horiz-adv-x="263" 
d="M235 639h-99v-647h99v-96h-195v96v743h195v-96z" />
    <glyph glyph-name="backslash" unicode="\" horiz-adv-x="387" 
d="M383 -88h-82l-297 914h79z" />
    <glyph glyph-name="bracketright" unicode="]" horiz-adv-x="263" 
d="M28 735h195v-743v-96h-195v96h99v647h-99v96z" />
    <glyph glyph-name="asciicircum" unicode="^" horiz-adv-x="538" 
d="M326 735l186 -340h-97l-146 265l-146 -265h-97l186 340h114z" />
    <glyph glyph-name="underscore" unicode="_" horiz-adv-x="591" 
d="M36 -75h519v-84h-519v84z" />
    <glyph glyph-name="grave" unicode="`" horiz-adv-x="500" 
d="M248 727l52 -90h-78l-79 90h105z" />
    <glyph glyph-name="a" unicode="a" horiz-adv-x="333" 
d="M123 142q0 -5 1 -13.5t4 -17t8.5 -14.5t14.5 -6q17 0 29.5 9.5t12.5 23.5v140q-37 -16 -53.5 -49.5t-16.5 -72.5zM24 127q0 46 12 79t30 55.5t39 37.5t40 25t32 17.5t16 15.5v18v42q0 7 -0.5 16t-3 16.5t-8.5 12.5t-16 5q-13 0 -19 -8.5t-8 -20.5t-2 -26v-26h-101v23
q0 30 10.5 56.5t28.5 46.5t43 31.5t54 11.5q25 0 47 -9.5t39 -26t27 -39t10 -49.5v-171v-165q0 -37 2 -57t5 -38h-99q-7 8 -8 23.5t-1 20.5h-7q-4 -7 -11 -16t-17.5 -17t-24 -13.5t-28.5 -5.5q-10 0 -24 5t-26.5 19.5t-21.5 41t-9 69.5z" />
    <glyph glyph-name="b" unicode="b" horiz-adv-x="335" 
d="M40 735h101v-224q13 12 26 22q11 8 25.5 15t28.5 7q21 0 35.5 -10.5t24 -26t14 -34.5t4.5 -36v-349q0 -17 -4.5 -36t-14 -34.5t-24 -26t-35.5 -10.5q-14 0 -28.5 7t-25.5 15q-13 10 -26 22v-36h-101v735zM141 120q0 -14 9.5 -23.5t20.5 -9.5t19 9.5t8 23.5v307
q0 14 -8 23.5t-19 9.5t-20.5 -10.5t-9.5 -22.5v-307z" />
    <glyph glyph-name="c" unicode="c" horiz-adv-x="315" 
d="M133 126q0 -15 4 -29.5t24 -14.5q17 0 23 9.5t6 34.5v76h101v-53q0 -46 -8.5 -76t-25 -48t-40.5 -25.5t-56 -7.5q-27 0 -51 8t-41 27t-27 50t-10 77v239q0 46 10 77t27 50t41 27t51 8q32 0 56 -7.5t40.5 -25.5t25 -48t8.5 -76v-43h-101v66q0 25 -6 34.5t-23 9.5
q-20 0 -24 -14.5t-4 -29.5v-295z" />
    <glyph glyph-name="d" unicode="d" horiz-adv-x="335" 
d="M295 0h-101v36q-13 -12 -26 -22q-11 -8 -25.5 -15t-28.5 -7q-21 0 -35.5 10.5t-24 26t-14 34.5t-4.5 36v349q0 17 4.5 36t14 34.5t24 26t35.5 10.5q14 0 28.5 -7t25.5 -15q13 -10 26 -22v224h101v-735zM194 427q0 12 -9.5 22.5t-20.5 10.5t-19 -9.5t-8 -23.5v-307
q0 -14 8 -23.5t19 -9.5t20.5 9.5t9.5 23.5v307z" />
    <glyph glyph-name="e" unicode="e" horiz-adv-x="322" 
d="M293 196v-63q-2 -40 -16 -71q-12 -26 -39 -48t-76 -22t-75.5 22.5t-38.5 49.5q-14 32 -16 72v275q2 40 17 72q12 27 38.5 49.5t75.5 22.5t75.5 -22.5t38.5 -48.5q14 -31 16 -70v-159h-167v-119q1 -16 5 -28q4 -11 11 -19t21 -8t21.5 8t10.5 19q4 12 4 28v60h94zM126 334
h73v77q0 16 -4 28q-3 11 -10.5 19.5t-21.5 8.5t-21 -8.5t-11 -19.5q-4 -12 -5 -28v-77z" />
    <glyph glyph-name="f" unicode="f" horiz-adv-x="232" 
d="M61 0v456h-51v91h51v8v7q0 21 2 51.5t12.5 58.5t34 47.5t67.5 19.5q12 0 20.5 -1t14.5 -3l12 -3v-87q-5 1 -9 2q-10 2 -21 2q-13 0 -19.5 -10t-9.5 -24.5t-3 -29.5v-24v-8v-6h51v-91h-51v-456h-101z" />
    <glyph glyph-name="g" unicode="g" horiz-adv-x="342" 
d="M287 264q-2 -38 -17 -68q-13 -26 -39.5 -46.5t-73.5 -20.5h-9.5t-9.5 1q-14 -12 -14 -25q0 -9 7 -14.5t18 -9t24.5 -6t27.5 -4.5q24 -3 48.5 -10t45 -21t33.5 -37t13 -59q0 -40 -15.5 -67t-40 -43t-55.5 -23t-62 -7q-36 1 -66 6.5t-51.5 17.5t-33 32t-11.5 50q0 14 7 26
t18 22.5t25.5 19t28.5 15.5q-25 7 -43 24t-18 49q0 12 6 24t15 23t20 20t22 15q-22 14 -33.5 34.5t-16.5 39.5q-6 22 -8 45v149q3 38 17 69q12 26 38 48t73 22q38 0 62.5 -15t38.5 -35q5 5 14 13.5t20.5 16.5t24 14t24.5 6v-90q-20 0 -35 -3.5t-24 -8.5q2 -8 2.5 -13.5
t1.5 -10.5t1 -10v-155zM188 412q0 14 -3 25q-3 9 -9 17t-19 8q-12 0 -18.5 -8t-8.5 -17q-3 -11 -2 -25v-150q-1 -14 2 -25q2 -9 8.5 -16.5t18.5 -7.5q13 0 19 7.5t9 16.5q3 11 3 25v150zM247 -74q0 7 -1.5 12.5t-7 10.5t-16 9t-29.5 7l-52 10q-16 -9 -26.5 -20.5
t-10.5 -27.5t15.5 -27t50.5 -11q13 0 26.5 2t24.5 6.5t18.5 11.5t7.5 17z" />
    <glyph glyph-name="h" unicode="h" horiz-adv-x="337" 
d="M174 457q-8 0 -13.5 -4t-10.5 -9q-5 -6 -9 -13v-431h-101v735h101v-234q3 2 11.5 10.5t19.5 18.5t24.5 17.5t26.5 7.5q20 0 34.5 -10.5t23.5 -26t13.5 -34.5t4.5 -36v-448h-101v433q0 16 -7.5 20t-16.5 4z" />
    <glyph glyph-name="i" unicode="i" horiz-adv-x="181" 
d="M40 0v547h101v-547h-101zM40 735h101v-101h-101v101z" />
    <glyph glyph-name="j" unicode="j" horiz-adv-x="178" 
d="M37 735h101v-101h-101v101zM37 547v-560v-23t-2.5 -26.5t-9 -21.5t-19.5 -9q-9 0 -19 2q-4 1 -9 2v-93q4 -2 10 -3q10 -3 34 -3q43 0 67 19t34.5 46.5t12.5 57.5t2 51v561h-101z" />
    <glyph glyph-name="k" unicode="k" horiz-adv-x="313" 
d="M141 735v-331v-18h5l6 18l49 143h91l-73 -178l92 -369h-97l-50 221l-2 8h-5l-3 -8l-13 -32v-189h-101v735h101z" />
    <glyph glyph-name="l" unicode="l" horiz-adv-x="181" 
d="M40 0v735h101v-735h-101z" />
    <glyph glyph-name="m" unicode="m" horiz-adv-x="499" 
d="M339 457q-8 0 -15 -4t-12 -9q-6 -6 -11 -13v-431h-95v433q0 16 -9.5 20t-17.5 4t-15 -4t-12 -9q-6 -6 -11 -13v-431h-101v547h101v-46q3 2 11.5 10.5t20.5 18.5t25.5 17.5t26.5 7.5q27 0 43.5 -18.5t24.5 -42.5q6 4 16 14.5t22.5 20.5t26.5 18t27 8q20 0 34.5 -10.5
t23.5 -26t13.5 -34.5t4.5 -36v-448h-95v433q0 16 -9.5 20t-17.5 4z" />
    <glyph glyph-name="n" unicode="n" horiz-adv-x="337" 
d="M174 457q-8 0 -13.5 -4t-10.5 -9q-5 -6 -9 -13v-431h-101v547h101v-46q3 2 11.5 10.5t19.5 18.5t24.5 17.5t26.5 7.5q20 0 34.5 -10.5t23.5 -26t13.5 -34.5t4.5 -36v-448h-101v433q0 16 -7.5 20t-16.5 4z" />
    <glyph glyph-name="o" unicode="o" horiz-adv-x="321" 
d="M290 133q-2 -40 -16 -71q-12 -26 -38.5 -48t-75.5 -22t-75 22.5t-38 49.5q-14 32 -16 72v275q2 40 16 72q12 27 38 49.5t75 22.5t75.5 -22.5t38.5 -48.5q14 -31 16 -70v-281zM195 411q1 16 -3 28q-3 11 -10.5 19.5t-21.5 8.5t-21 -8.5t-10 -19.5q-4 -12 -3 -28v-275
q-1 -16 3 -28q3 -11 10 -19t21 -8t21.5 8t10.5 19q4 12 3 28v275z" />
    <glyph glyph-name="p" unicode="p" horiz-adv-x="335" 
d="M40 547h101v-36q13 12 26 22q11 8 25.5 15t28.5 7q21 0 35.5 -10.5t24 -26t14 -34.5t4.5 -36v-349q0 -17 -4.5 -36t-14 -34.5t-24 -26t-35.5 -10.5q-14 0 -28.5 7t-25.5 15q-13 10 -26 22v-224h-101v735zM141 120q0 -12 9.5 -22.5t20.5 -10.5t19 9.5t8 23.5v307
q0 14 -8 23.5t-19 9.5t-20.5 -9.5t-9.5 -23.5v-307z" />
    <glyph glyph-name="q" unicode="q" horiz-adv-x="335" 
d="M295 -188h-101v224q-13 -12 -26 -22q-11 -8 -25.5 -15t-28.5 -7q-21 0 -35.5 10.5t-24 26t-14 34.5t-4.5 36v349q0 17 4.5 36t14 34.5t24 26t35.5 10.5q14 0 28.5 -7t25.5 -15q13 -10 26 -22v36h101v-735zM194 427q0 14 -9.5 23.5t-20.5 9.5t-19 -9.5t-8 -23.5v-307
q0 -14 8 -23.5t19 -9.5t20.5 10.5t9.5 22.5v307z" />
    <glyph glyph-name="r" unicode="r" horiz-adv-x="246" 
d="M242 443q-14 4 -28 4q-12 0 -25.5 -3t-25.5 -14q-14 -12 -18 -24.5t-4 -25.5v-380h-101v547h101v-61q1 5 6.5 16.5t17.5 23t30.5 20.5t46.5 9v-112z" />
    <glyph glyph-name="s" unicode="s" horiz-adv-x="308" 
d="M35 407q0 24 5.5 50t19.5 47.5t38 35.5t60 15q44 1 70 -13.5t39 -36.5t16.5 -48.5t3.5 -49.5h-94q0 10 -0.5 21t-4 20.5t-10 16t-18.5 6.5q-10 0 -16 -6.5t-9.5 -15.5t-4.5 -20.5t-1 -21.5q0 -13 6 -26t15.5 -25t21 -24t23.5 -23q16 -16 33 -34t30 -38.5t21.5 -44
t8.5 -50.5q0 -26 -6.5 -52.5t-22 -48t-40 -35.5t-60.5 -14q-46 0 -74 18t-43 43.5t-19.5 54.5t-4.5 51h94q0 -11 1.5 -25.5t6.5 -27t14 -21.5t25 -9q22 0 28.5 21t6.5 45q0 25 -20 49.5t-43 47.5q-18 17 -35 34t-30.5 37t-22 43.5t-8.5 53.5z" />
    <glyph glyph-name="t" unicode="t" horiz-adv-x="245" 
d="M162 682v-135h69v-91h-69v-272q0 -13 0.5 -28.5t3.5 -29t9.5 -23t18.5 -9.5q6 0 13 0.5t12 1.5l12 2v-99q-7 -2 -15 -4q-15 -3 -39 -3q-44 0 -67.5 19.5t-34 48t-12.5 60.5t-2 56v280h-51v91h51v135h101z" />
    <glyph glyph-name="u" unicode="u" horiz-adv-x="337" 
d="M163 90q8 0 13.5 4t10.5 9t9 13v431h101v-547h-101v46q-3 -2 -11.5 -10.5t-19.5 -18.5t-24.5 -17.5t-26.5 -7.5q-20 0 -34.5 10.5t-23.5 26t-13.5 34.5t-4.5 36v448h101v-433q0 -16 7.5 -20t16.5 -4z" />
    <glyph glyph-name="v" unicode="v" horiz-adv-x="294" 
d="M97 0l-89 547h98l33 -317l4 -35h8l4 35l33 317h98l-89 -547h-100z" />
    <glyph glyph-name="w" unicode="w" horiz-adv-x="442" 
d="M267 0l-39 261l-5 31h-4l-5 -31l-39 -261h-84l-81 547h92l32 -286l4 -31h6l5 31l42 286h60l42 -286l5 -31h6l4 31l32 286h92l-81 -547h-84z" />
    <glyph glyph-name="x" unicode="x" horiz-adv-x="302" 
d="M102 282l-86 265h95l36 -128l3 -15h2l3 15l36 128h95l-86 -265l94 -282h-98l-41 138l-3 15h-2l-3 -15l-41 -138h-98z" />
    <glyph glyph-name="y" unicode="y" horiz-adv-x="310" 
d="M16 -104q2 -1 6 -1q4 -1 18 -1q16 1 28 10t20 21.5t12.5 28t4.5 30.5l-93 563h99l40 -336l2 -28h4l2 28l40 336h99l-97 -588q-4 -29 -15 -56.5t-29 -49.5t-42 -35.5t-54 -13.5h-12t-15 1q-9 0 -18 1v90z" />
    <glyph glyph-name="z" unicode="z" horiz-adv-x="260" 
d="M6 82l139 373h-117v92h224v-82l-139 -373h139v-92h-246v82z" />
    <glyph glyph-name="braceleft" unicode="{" horiz-adv-x="336" 
d="M94 563q0 56 11.5 91.5t37 55.5t66.5 27t99 6v-84q-32 0 -54.5 -3.5t-36.5 -14.5t-20.5 -29.5t-6.5 -48.5v-194q0 -40 -16.5 -65t-45.5 -43q29 -19 45.5 -44t16.5 -64v-194q0 -30 6.5 -48.5t20.5 -29.5t36.5 -14.5t54.5 -3.5v-84q-58 -1 -99 6t-66.5 27t-37 55.5
t-11.5 91.5v194q0 5 -2.5 15.5t-9.5 22t-19.5 20.5t-32.5 10v80q20 0 32.5 8.5t19.5 20t9.5 23t2.5 16.5v194v0z" />
    <glyph glyph-name="bar" unicode="|" horiz-adv-x="174" 
d="M40 -250v1076h94v-1076h-94z" />
    <glyph glyph-name="braceright" unicode="}" horiz-adv-x="336" 
d="M242 369q0 -5 2.5 -16.5t9.5 -23t19.5 -20t32.5 -8.5v-80q-20 -1 -32.5 -10t-19.5 -20.5t-9.5 -22t-2.5 -15.5v-194q0 -56 -11.5 -91.5t-37 -55.5t-66.5 -27t-99 -6v84q32 0 54.5 3.5t36.5 14.5t20.5 29.5t6.5 48.5v194q0 39 16.5 64t45.5 44q-29 18 -45.5 43t-16.5 65
v194q0 30 -6.5 48.5t-20.5 29.5t-36.5 14.5t-54.5 3.5v84q58 1 99 -6t66.5 -27t37 -55.5t11.5 -91.5v-194z" />
    <glyph glyph-name="asciitilde" unicode="~" horiz-adv-x="625" 
d="M219 720q-26 0 -44.5 -13.5t-30.5 -30.5q-14 -19 -23 -44l-66 28q14 42 38 75q20 28 51 51.5t75 23.5q45 0 75.5 -16t59.5 -34q20 -14 41 -24.5t44 -10.5t41 13.5t29 30.5q13 19 23 45l66 -28q-16 -43 -39 -76q-20 -29 -49.5 -52t-70.5 -23q-42 0 -73 15t-60 34
q-21 14 -42.5 25t-44.5 11z" />
    <glyph glyph-name="exclamdown" unicode="&#xa1;" horiz-adv-x="189" 
d="M42 436.007h105v110.993h-105v-110.993zM36 -187.955h117l-27 536.967h-63z" />
    <glyph glyph-name="cent" unicode="&#xa2;" horiz-adv-x="311" 
d="M194 765v-119q23 -4 40.5 -14t29 -28t17.5 -45.5t6 -66.5v-43h-92v66q0 25 -9.5 34.5t-26.5 9.5q-20 0 -27.5 -14.5t-7.5 -29.5v-295q0 -15 7.5 -29.5t27.5 -14.5q17 0 26.5 9.5t9.5 34.5v76h92v-53q0 -78 -23.5 -113t-69.5 -42v-148h-60v147q-45 7 -73.5 43.5
t-28.5 117.5v239q0 80 28.5 116.5t73.5 43.5v118h60z" />
    <glyph glyph-name="sterling" unicode="&#xa3;" horiz-adv-x="399" 
d="M249 547q0 18 -2.5 35.5t-8.5 31t-17 21.5t-28 8q-12 0 -20.5 -7.5t-14 -19.5t-7.5 -26.5t-2 -28.5q0 -40 10.5 -81.5t23.5 -83.5l3 -12h103v-67h-85q12 -50 12 -85q0 -20 -7 -49t-21 -58q19 -9 33.5 -18.5t31.5 -10.5q14 1 26 21.5t14 71.5l92 -11q-6 -92 -40.5 -139
t-82.5 -47q-18 0 -35.5 8t-34.5 17t-33 17t-30 8t-24.5 -8t-17.5 -17q-9 -11 -14 -25l-71 39q11 25 26 47q13 18 32 35t45 22q8 23 13 49.5t5 47.5q0 19 -4 40.5t-11 44.5h-92v67h72l-3 10q-14 47 -26 91.5t-12 75.5t7 63.5t24 58.5t44.5 42.5t68.5 17.5q49 1 80.5 -16
t49.5 -44.5t25 -63t7 -72.5h-104z" />
    <glyph glyph-name="yen" unicode="&#xa5;" horiz-adv-x="352" 
d="M36 233h86v67h-86v67h72l-96 368h106l54 -235l3 -27h2l3 27l54 235h106l-96 -368h72v-67h-86v-67h86v-67h-86v-166h-108v166h-86v67z" />
    <glyph glyph-name="dieresis" unicode="&#xa8;" horiz-adv-x="500" 
d="M133 735h93v-98h-93v98zM274 735h93v-98h-93v98z" />
    <glyph glyph-name="copyright" unicode="&#xa9;" horiz-adv-x="803" 
d="M26 367q0 78 29.5 146.5t80.5 119.5t119.5 80.5t145.5 29.5q78 0 146.5 -29.5t119.5 -80.5t80.5 -119.5t29.5 -146.5q0 -77 -29.5 -145.5t-80.5 -119.5t-119.5 -80.5t-146.5 -29.5q-77 0 -145.5 29.5t-119.5 80.5t-80.5 119.5t-29.5 145.5zM492 299v-61q-2 -27 -12 -48
q-9 -18 -27 -33t-53 -15q-36 0 -55 15t-28 33q-11 21 -11 48v259q0 27 11 48q9 18 28 33t55 15q35 0 53 -15t27 -33q10 -21 12 -48v-61h-67v61q1 8 -2 15q-2 6 -7 11t-15 5q-9 0 -14 -5t-7 -11q-3 -7 -3 -15v-259q0 -9 3 -16q2 -6 7 -10.5t14 -4.5q10 0 15 4.5t7 10.5
q3 7 2 16v61h67zM84 367q0 -65 25 -122.5t68.5 -101t101 -68.5t122.5 -25t123 25t101.5 68.5t68.5 101t25 122.5t-25 123t-68.5 101.5t-101.5 68.5t-123 25t-122.5 -25t-101 -68.5t-68.5 -101.5t-25 -123z" />
    <glyph glyph-name="guillemotleft" unicode="&#xab;" horiz-adv-x="360" 
d="M39 286l88 286h106l-88 -286l88 -286h-106zM187 286l44 143h93l-44 -143l44 -143h-93z" />
    <glyph glyph-name="registered" unicode="&#xae;" horiz-adv-x="803" 
d="M401 582q60 0 86.5 -33.5t26.5 -92.5q0 -32 -6.5 -57.5t-36.5 -50.5l52 -195h-74l-46 178h-27v-178h-71v429h96zM376 519v-126h22q16 0 26 5.5t14.5 14.5t6 20t1.5 22t-1.5 22.5t-6 20.5t-14.5 15t-26 6h-22zM26 367q0 78 29.5 146.5t80.5 119.5t119.5 80.5t145.5 29.5
q78 0 146.5 -29.5t119.5 -80.5t80.5 -119.5t29.5 -146.5q0 -77 -29.5 -145.5t-80.5 -119.5t-119.5 -80.5t-146.5 -29.5q-77 0 -145.5 29.5t-119.5 80.5t-80.5 119.5t-29.5 145.5zM84 367q0 -65 25 -122.5t68.5 -101t101 -68.5t122.5 -25t123 25t101.5 68.5t68.5 101
t25 122.5t-25 123t-68.5 101.5t-101.5 68.5t-123 25t-122.5 -25t-101 -68.5t-68.5 -101.5t-25 -123z" />
    <glyph glyph-name="macron" unicode="&#xaf;" horiz-adv-x="500" 
d="M153 721h194v-79h-194v79z" />
    <glyph glyph-name="acute" unicode="&#xb4;" horiz-adv-x="500" 
d="M357 727l-79 -90h-78l52 90h105z" />
    <glyph glyph-name="periodcentered" unicode="&#xb7;" horiz-adv-x="105" 
d="M0 428h105v-111h-105v111z" />
    <glyph glyph-name="cedilla" unicode="&#xb8;" horiz-adv-x="500" 
d="M292 -123l-22 -65h-51l20 65h-31v69h84v-69z" />
    <glyph glyph-name="guillemotright" unicode="&#xbb;" horiz-adv-x="360" 
d="M236 0h-106l88 286l-88 286h106l88 -286zM132 143h-93l44 143l-44 143h93l44 -143z" />
    <glyph glyph-name="questiondown" unicode="&#xbf;" horiz-adv-x="315" 
d="M218.006 436.007h-104.993v110.993h104.993v-110.993zM212.006 349.012v-124.992q0 -39.9971 -5.99902 -72.4951q-6 -32.498 -15.999 -59.4971q-10 -26.998 -21.999 -48.4971q-11.999 -21.498 -22.998 -40.4971q-20.999 -34.998 -25.999 -54.9971q-1 -4.99902 0 -12.499
q1 -7.49902 4.5 -14.999q3.5 -7.49902 10.499 -12.999q7 -5.5 17.999 -5.5q13.999 0 24.499 8q10.499 7.99902 18.499 19.499q7.99902 11.499 13.499 23.998q5.49902 12.499 7.49902 19.499l86.9951 -40.998q-4 -11.999 -15.999 -32.998q-12 -20.998 -30.498 -41.4971
q-18.499 -20.499 -44.998 -35.498q-26.498 -14.999 -61.4961 -13.999q-41.9971 1 -67.9951 17.499q-25.999 16.499 -39.498 38.998q-13.499 22.498 -17.999 45.4971q-4.5 22.998 -4.5 37.9971q0 30.999 11.5 55.4971q11.499 24.498 27.498 51.4971
q8.99902 14.999 19.499 32.498q10.499 17.499 19.499 38.4971q8.99902 20.999 14.999 45.4971q5.99902 24.499 5.99902 52.4971v124.992h92.9941z" />
    <glyph glyph-name="Agrave" unicode="&#xc0;" horiz-adv-x="374" 
d="M10 0l111 735h132l111 -735h-105l-20 150h-104l-20 -150h-105zM193 496l-3 39h-6l-3 -39l-31 -232h74zM175 890l52 -90h-78l-79 90h105z" />
    <glyph glyph-name="Aacute" unicode="&#xc1;" horiz-adv-x="374" 
d="M10 0l111 735h132l111 -735h-105l-20 150h-104l-20 -150h-105zM193 496l-3 39h-6l-3 -39l-31 -232h74zM301 890l-79 -90h-78l52 90h105z" />
    <glyph glyph-name="Acircumflex" unicode="&#xc2;" horiz-adv-x="374" 
d="M10 0l111 735h132l111 -735h-105l-20 150h-104l-20 -150h-105zM193 496l-3 39h-6l-3 -39l-31 -232h74zM242 890l69 -90h-92l-31 35l-30 -35h-92l69 90h107z" />
    <glyph glyph-name="Atilde" unicode="&#xc3;" horiz-adv-x="374" 
d="M10 0l111 735h132l111 -735h-105l-20 150h-104l-20 -150h-105zM193 496l-3 39h-6l-3 -39l-31 -232h74zM144 813q-11 0 -20 -2.5t-17 -5.5q-9 -4 -16 -8v74q7 5 16 9q8 4 17 7t20 3q23 0 44 -8.5t44 -10.5q11 0 20 2.5t17 5.5q9 4 16 8v-74q-7 -6 -16 -10q-8 -4 -17 -6.5
t-20 -2.5q-23 0 -43.5 9t-44.5 10z" />
    <glyph glyph-name="Adieresis" unicode="&#xc4;" horiz-adv-x="374" 
d="M10 0l111 735h132l111 -735h-105l-20 150h-104l-20 -150h-105zM193 496l-3 39h-6l-3 -39l-31 -232h74zM71 898h93v-98h-93v98zM212 898h93v-98h-93v98z" />
    <glyph glyph-name="Aring" unicode="&#xc5;" horiz-adv-x="374" 
d="M10 0l111 735h132l111 -735h-105l-20 150h-104l-20 -150h-105zM193 496l-3 39h-6l-3 -39l-31 -232h74zM114 860q0 31 22 50.5t53 19.5t52.5 -19.5t21.5 -50.5t-21.5 -50.5t-52.5 -19.5t-53 19.5t-22 50.5zM152 860q0 -14 11.5 -24.5t25.5 -10.5t25.5 10.5t11.5 24.5
t-11.5 24.5t-25.5 10.5t-25.5 -10.5t-11.5 -24.5z" />
    <glyph glyph-name="AE" unicode="&#xc6;" horiz-adv-x="537" 
d="M270 150h-111l-44 -150h-107l205 735h304v-111h-139v-193h100v-118h-100v-202h139v-111h-247v150zM192 264h78v251h-5z" />
    <glyph glyph-name="Ccedilla" unicode="&#xc7;" horiz-adv-x="346" 
d="M321 252v-101q-2 -45 -18 -80q-7 -15 -17.5 -29t-25.5 -25.5t-35.5 -18t-47.5 -6.5t-48 6.5t-36 18t-25 25.5t-17 29q-16 35 -18 80v433q2 44 18 79q7 15 17 29.5t25 25.5t36 18t48 7t47.5 -7t35.5 -18t25.5 -25.5t17.5 -29.5q16 -35 18 -79v-101h-101v101q0 15 -4 27
q-4 10 -12 18.5t-25 8.5q-14 0 -21.5 -8.5t-11.5 -18.5q-4 -12 -5 -27v-433q1 -16 5 -27t11.5 -19t21.5 -8q17 0 25 8t12 19t4 27v101h101zM216 -123l-22 -65h-51l20 65h-31v69h84v-69z" />
    <glyph glyph-name="Egrave" unicode="&#xc8;" horiz-adv-x="307" 
d="M40 735h247v-111h-139v-193h100v-118h-100v-202h139v-111h-247v735zM160 890l52 -90h-78l-79 90h105z" />
    <glyph glyph-name="Eacute" unicode="&#xc9;" horiz-adv-x="307" 
d="M40 735h247v-111h-139v-193h100v-118h-100v-202h139v-111h-247v735zM273 890l-79 -90h-78l52 90h105z" />
    <glyph glyph-name="Ecircumflex" unicode="&#xca;" horiz-adv-x="307" 
d="M40 735h247v-111h-139v-193h100v-118h-100v-202h139v-111h-247v735zM218 890l69 -90h-92l-31 35l-30 -35h-92l69 90h107z" />
    <glyph glyph-name="Edieresis" unicode="&#xcb;" horiz-adv-x="307" 
d="M40 735h247v-111h-139v-193h100v-118h-100v-202h139v-111h-247v735zM47 898h93v-98h-93v98zM188 898h93v-98h-93v98z" />
    <glyph glyph-name="Igrave" unicode="&#xcc;" horiz-adv-x="196" 
d="M48 735h108v-735h-108v735zM103 890l52 -90h-78l-79 90h105z" />
    <glyph glyph-name="Iacute" unicode="&#xcd;" horiz-adv-x="196" 
d="M40 735h108v-735h-108v735zM200 890l-79 -90h-78l52 90h105z" />
    <glyph glyph-name="Icircumflex" unicode="&#xce;" horiz-adv-x="181" 
d="M37 735h108v-735h-108v735zM145 890l69 -90h-92l-31 35l-30 -35h-92l69 90h107z" />
    <glyph glyph-name="Idieresis" unicode="&#xcf;" horiz-adv-x="182" 
d="M38 735h108v-735h-108v735zM-25 898h93v-98h-93v98zM116 898h93v-98h-93v98z" />
    <glyph glyph-name="Eth" unicode="&#xd0;" horiz-adv-x="372" 
d="M10 431h30v304h85q75 0 118 -17t64.5 -59t27 -113t5.5 -179t-5.5 -178.5t-27 -112.5t-64.5 -59t-118 -17h-85v320h-30v111zM148 431h41v-111h-41v-212q28 0 44.5 6.5t24.5 33t9.5 78.5t1.5 142t-1.5 141.5t-9.5 78t-24.5 33t-44.5 6.5v-196z" />
    <glyph glyph-name="Ntilde" unicode="&#xd1;" horiz-adv-x="395" 
d="M154 383l-9 34h-6v-34v-383h-99v735h96l105 -383l9 -34h6v34v383h99v-735h-96zM155 813q-11 0 -20 -2.5t-17 -5.5q-9 -4 -16 -8v74q7 5 16 9q8 4 17 7t20 3q23 0 44 -8.5t44 -10.5q11 0 20 2.5t17 5.5q9 4 16 8v-74q-7 -6 -16 -10q-8 -4 -17 -6.5t-20 -2.5q-23 0 -43.5 9
t-44.5 10z" />
    <glyph glyph-name="Ograve" unicode="&#xd2;" horiz-adv-x="354" 
d="M321 151q-2 -45 -18 -80q-7 -15 -17.5 -29t-25.5 -25.5t-35.5 -18t-47.5 -6.5t-48 6.5t-36 18t-25 25.5t-17 29q-16 35 -18 80v433q2 44 18 79q7 15 17 29.5t25 25.5t36 18t48 7t47.5 -7t35.5 -18t25.5 -25.5t17.5 -29.5q16 -35 18 -79v-433zM213 584q0 15 -4 27
q-3 10 -10.5 18.5t-21.5 8.5t-21.5 -8.5t-10.5 -18.5q-4 -12 -4 -27v-433q0 -16 4 -27q3 -11 10.5 -19t21.5 -8t21.5 8t10.5 19q4 11 4 27v433zM165 890l52 -90h-78l-79 90h105z" />
    <glyph glyph-name="Oacute" unicode="&#xd3;" horiz-adv-x="354" 
d="M321 151q-2 -45 -18 -80q-7 -15 -17.5 -29t-25.5 -25.5t-35.5 -18t-47.5 -6.5t-48 6.5t-36 18t-25 25.5t-17 29q-16 35 -18 80v433q2 44 18 79q7 15 17 29.5t25 25.5t36 18t48 7t47.5 -7t35.5 -18t25.5 -25.5t17.5 -29.5q16 -35 18 -79v-433zM213 584q0 15 -4 27
q-3 10 -10.5 18.5t-21.5 8.5t-21.5 -8.5t-10.5 -18.5q-4 -12 -4 -27v-433q0 -16 4 -27q3 -11 10.5 -19t21.5 -8t21.5 8t10.5 19q4 11 4 27v433zM297 890l-79 -90h-78l52 90h105z" />
    <glyph glyph-name="Ocircumflex" unicode="&#xd4;" horiz-adv-x="354" 
d="M321 151q-2 -45 -18 -80q-7 -15 -17.5 -29t-25.5 -25.5t-35.5 -18t-47.5 -6.5t-48 6.5t-36 18t-25 25.5t-17 29q-16 35 -18 80v433q2 44 18 79q7 15 17 29.5t25 25.5t36 18t48 7t47.5 -7t35.5 -18t25.5 -25.5t17.5 -29.5q16 -35 18 -79v-433zM213 584q0 15 -4 27
q-3 10 -10.5 18.5t-21.5 8.5t-21.5 -8.5t-10.5 -18.5q-4 -12 -4 -27v-433q0 -16 4 -27q3 -11 10.5 -19t21.5 -8t21.5 8t10.5 19q4 11 4 27v433zM232 890l69 -90h-92l-31 35l-30 -35h-92l69 90h107z" />
    <glyph glyph-name="Otilde" unicode="&#xd5;" horiz-adv-x="354" 
d="M321 151q-2 -45 -18 -80q-7 -15 -17.5 -29t-25.5 -25.5t-35.5 -18t-47.5 -6.5t-48 6.5t-36 18t-25 25.5t-17 29q-16 35 -18 80v433q2 44 18 79q7 15 17 29.5t25 25.5t36 18t48 7t47.5 -7t35.5 -18t25.5 -25.5t17.5 -29.5q16 -35 18 -79v-433zM213 584q0 15 -4 27
q-3 10 -10.5 18.5t-21.5 8.5t-21.5 -8.5t-10.5 -18.5q-4 -12 -4 -27v-433q0 -16 4 -27q3 -11 10.5 -19t21.5 -8t21.5 8t10.5 19q4 11 4 27v433zM134 813q-11 0 -20 -2.5t-17 -5.5q-9 -4 -16 -8v74q7 5 16 9q8 4 17 7t20 3q23 0 44 -8.5t44 -10.5q11 0 20 2.5t17 5.5
q9 4 16 8v-74q-7 -6 -16 -10q-8 -4 -17 -6.5t-20 -2.5q-23 0 -43.5 9t-44.5 10z" />
    <glyph glyph-name="Odieresis" unicode="&#xd6;" horiz-adv-x="354" 
d="M321 151q-2 -45 -18 -80q-7 -15 -17.5 -29t-25.5 -25.5t-35.5 -18t-47.5 -6.5t-48 6.5t-36 18t-25 25.5t-17 29q-16 35 -18 80v433q2 44 18 79q7 15 17 29.5t25 25.5t36 18t48 7t47.5 -7t35.5 -18t25.5 -25.5t17.5 -29.5q16 -35 18 -79v-433zM213 584q0 15 -4 27
q-3 10 -10.5 18.5t-21.5 8.5t-21.5 -8.5t-10.5 -18.5q-4 -12 -4 -27v-433q0 -16 4 -27q3 -11 10.5 -19t21.5 -8t21.5 8t10.5 19q4 11 4 27v433zM61 898h93v-98h-93v98zM202 898h93v-98h-93v98z" />
    <glyph glyph-name="multiply" unicode="&#xd7;" horiz-adv-x="518" 
d="M259 300l-120 -120l-59 59l120 120l-120 120l59 59l120 -120l120 120l59 -59l-120 -120l120 -120l-59 -59z" />
    <glyph glyph-name="Oslash" unicode="&#xd8;" horiz-adv-x="354" 
d="M29 -10l23 77q-8 15 -11.5 30t-5.5 27q-2 14 -2 27v433q2 44 18 79q7 15 17 29.5t25 25.5t36 18t48 7q24 0 43 -5.5t34 -15.5l7 23h60l-22 -73q8 -16 12.5 -31.5t6.5 -28.5q3 -15 3 -28v-433q-2 -45 -18 -80q-7 -15 -17.5 -29t-25.5 -25.5t-35.5 -18t-47.5 -6.5
q-25 0 -44.5 5.5t-33.5 15.5l-7 -23h-63zM177 97q14 0 21.5 8t10.5 19q4 11 4 27v238l-72 -238q0 -16 4 -27q3 -11 10.5 -19t21.5 -8zM141 355l72 234q0 4 -1.5 12t-5 16.5t-10.5 14.5t-19 6q-14 0 -21.5 -8.5t-10.5 -18.5q-4 -12 -4 -27v-229z" />
    <glyph glyph-name="Ugrave" unicode="&#xd9;" horiz-adv-x="366" 
d="M327 735v-584q-2 -45 -18 -80q-7 -15 -17.5 -29t-25.5 -25.5t-35.5 -18t-47.5 -6.5t-48 6.5t-36 18t-25 25.5t-17 29q-16 35 -18 80v584h108v-584q0 -16 4 -27q3 -11 10.5 -19t21.5 -8t21.5 8t10.5 19q4 11 4 27v584h108zM177 890l52 -90h-78l-79 90h105z" />
    <glyph glyph-name="Uacute" unicode="&#xda;" horiz-adv-x="366" 
d="M327 735v-584q-2 -45 -18 -80q-7 -15 -17.5 -29t-25.5 -25.5t-35.5 -18t-47.5 -6.5t-48 6.5t-36 18t-25 25.5t-17 29q-16 35 -18 80v584h108v-584q0 -16 4 -27q3 -11 10.5 -19t21.5 -8t21.5 8t10.5 19q4 11 4 27v584h108zM308 890l-79 -90h-78l52 90h105z" />
    <glyph glyph-name="Ucircumflex" unicode="&#xdb;" horiz-adv-x="366" 
d="M327 735v-584q-2 -45 -18 -80q-7 -15 -17.5 -29t-25.5 -25.5t-35.5 -18t-47.5 -6.5t-48 6.5t-36 18t-25 25.5t-17 29q-16 35 -18 80v584h108v-584q0 -16 4 -27q3 -11 10.5 -19t21.5 -8t21.5 8t10.5 19q4 11 4 27v584h108zM238 890l69 -90h-92l-31 35l-30 -35h-92l69 90
h107z" />
    <glyph glyph-name="Udieresis" unicode="&#xdc;" horiz-adv-x="366" 
d="M327 735v-584q-2 -45 -18 -80q-7 -15 -17.5 -29t-25.5 -25.5t-35.5 -18t-47.5 -6.5t-48 6.5t-36 18t-25 25.5t-17 29q-16 35 -18 80v584h108v-584q0 -16 4 -27q3 -11 10.5 -19t21.5 -8t21.5 8t10.5 19q4 11 4 27v584h108zM67 898h93v-98h-93v98zM208 898h93v-98h-93v98z
" />
    <glyph glyph-name="Yacute" unicode="&#xdd;" horiz-adv-x="344" 
d="M168 500l3 -27h2l3 27l54 235h106l-110 -422v-313h-108v313l-110 422h106zM282 890l-79 -90h-78l52 90h105z" />
    <glyph glyph-name="Thorn" unicode="&#xde;" horiz-adv-x="354" 
d="M40 735h107v-118h1q35 0 69 -10.5t61 -36t43.5 -68t16.5 -105.5t-16.5 -105.5t-43.5 -68t-61 -36.5t-69 -11v-176h-108v735zM148 286q25 0 41 5t25 17.5t12 33t3 51.5t-3 52.5t-12 35t-25 20t-41 6.5v-221z" />
    <glyph glyph-name="germandbls" unicode="&#xdf;" horiz-adv-x="358" 
d="M169 547q17 0 29.5 15.5t12.5 41.5q0 20 -10 34.5t-32 14.5q-19 0 -27.5 -15t-8.5 -35v-603h-101v603q0 28 8 53.5t25 44.5t42.5 30.5t61.5 11.5q34 0 59 -11t41 -30t24 -44.5t8 -53.5q0 -27 -11.5 -48.5t-31.5 -36.5q17 -10 30.5 -27.5t23.5 -46t15 -69t5 -95.5
q0 -91 -10.5 -146.5t-31.5 -85.5t-51.5 -39.5t-69.5 -9.5v94q15 0 27 6.5t19.5 26.5t11.5 57t4 97q0 64 -4 102.5t-11.5 59.5t-19.5 28t-27 7v69z" />
    <glyph glyph-name="agrave" unicode="&#xe0;" horiz-adv-x="333" 
d="M123 142q0 -5 1 -13.5t4 -17t8.5 -14.5t14.5 -6q17 0 29.5 9.5t12.5 23.5v140q-37 -16 -53.5 -49.5t-16.5 -72.5zM24 127q0 46 12 79t30 55.5t39 37.5t40 25t32 17.5t16 15.5v18v42q0 7 -0.5 16t-3 16.5t-8.5 12.5t-16 5q-13 0 -19 -8.5t-8 -20.5t-2 -26v-26h-101v23
q0 30 10.5 56.5t28.5 46.5t43 31.5t54 11.5q25 0 47 -9.5t39 -26t27 -39t10 -49.5v-171v-165q0 -37 2 -57t5 -38h-99q-7 8 -8 23.5t-1 20.5h-7q-4 -7 -11 -16t-17.5 -17t-24 -13.5t-28.5 -5.5q-10 0 -24 5t-26.5 19.5t-21.5 41t-9 69.5zM156 727l52 -90h-78l-79 90h105z" />
    <glyph glyph-name="aacute" unicode="&#xe1;" horiz-adv-x="333" 
d="M123 142q0 -5 1 -13.5t4 -17t8.5 -14.5t14.5 -6q17 0 29.5 9.5t12.5 23.5v140q-37 -16 -53.5 -49.5t-16.5 -72.5zM24 127q0 46 12 79t30 55.5t39 37.5t40 25t32 17.5t16 15.5v18v42q0 7 -0.5 16t-3 16.5t-8.5 12.5t-16 5q-13 0 -19 -8.5t-8 -20.5t-2 -26v-26h-101v23
q0 30 10.5 56.5t28.5 46.5t43 31.5t54 11.5q25 0 47 -9.5t39 -26t27 -39t10 -49.5v-171v-165q0 -37 2 -57t5 -38h-99q-7 8 -8 23.5t-1 20.5h-7q-4 -7 -11 -16t-17.5 -17t-24 -13.5t-28.5 -5.5q-10 0 -24 5t-26.5 19.5t-21.5 41t-9 69.5zM287 727l-79 -90h-78l52 90h105z" />
    <glyph glyph-name="acircumflex" unicode="&#xe2;" horiz-adv-x="333" 
d="M123 142q0 -5 1 -13.5t4 -17t8.5 -14.5t14.5 -6q17 0 29.5 9.5t12.5 23.5v140q-37 -16 -53.5 -49.5t-16.5 -72.5zM24 127q0 46 12 79t30 55.5t39 37.5t40 25t32 17.5t16 15.5v18v42q0 7 -0.5 16t-3 16.5t-8.5 12.5t-16 5q-13 0 -19 -8.5t-8 -20.5t-2 -26v-26h-101v23
q0 30 10.5 56.5t28.5 46.5t43 31.5t54 11.5q25 0 47 -9.5t39 -26t27 -39t10 -49.5v-171v-165q0 -37 2 -57t5 -38h-99q-7 8 -8 23.5t-1 20.5h-7q-4 -7 -11 -16t-17.5 -17t-24 -13.5t-28.5 -5.5q-10 0 -24 5t-26.5 19.5t-21.5 41t-9 69.5zM221 727l69 -90h-92l-31 35l-30 -35
h-92l69 90h107z" />
    <glyph glyph-name="atilde" unicode="&#xe3;" horiz-adv-x="333" 
d="M123 142q0 -5 1 -13.5t4 -17t8.5 -14.5t14.5 -6q17 0 29.5 9.5t12.5 23.5v140q-37 -16 -53.5 -49.5t-16.5 -72.5zM24 127q0 46 12 79t30 55.5t39 37.5t40 25t32 17.5t16 15.5v18v42q0 7 -0.5 16t-3 16.5t-8.5 12.5t-16 5q-13 0 -19 -8.5t-8 -20.5t-2 -26v-26h-101v23
q0 30 10.5 56.5t28.5 46.5t43 31.5t54 11.5q25 0 47 -9.5t39 -26t27 -39t10 -49.5v-171v-165q0 -37 2 -57t5 -38h-99q-7 8 -8 23.5t-1 20.5h-7q-4 -7 -11 -16t-17.5 -17t-24 -13.5t-28.5 -5.5q-10 0 -24 5t-26.5 19.5t-21.5 41t-9 69.5zM124 653q-11 0 -20 -2.5t-17 -5.5
q-9 -4 -16 -8v74q7 5 16 9q8 4 17 7t20 3q23 0 44 -8.5t44 -10.5q11 0 20 2.5t17 5.5q9 4 16 8v-74q-7 -6 -16 -10q-8 -4 -17 -6.5t-20 -2.5q-23 0 -43.5 9t-44.5 10z" />
    <glyph glyph-name="adieresis" unicode="&#xe4;" horiz-adv-x="333" 
d="M123 142q0 -5 1 -13.5t4 -17t8.5 -14.5t14.5 -6q17 0 29.5 9.5t12.5 23.5v140q-37 -16 -53.5 -49.5t-16.5 -72.5zM24 127q0 46 12 79t30 55.5t39 37.5t40 25t32 17.5t16 15.5v18v42q0 7 -0.5 16t-3 16.5t-8.5 12.5t-16 5q-13 0 -19 -8.5t-8 -20.5t-2 -26v-26h-101v23
q0 30 10.5 56.5t28.5 46.5t43 31.5t54 11.5q25 0 47 -9.5t39 -26t27 -39t10 -49.5v-171v-165q0 -37 2 -57t5 -38h-99q-7 8 -8 23.5t-1 20.5h-7q-4 -7 -11 -16t-17.5 -17t-24 -13.5t-28.5 -5.5q-10 0 -24 5t-26.5 19.5t-21.5 41t-9 69.5zM51 735h93v-98h-93v98zM192 735h93
v-98h-93v98z" />
    <glyph glyph-name="aring" unicode="&#xe5;" horiz-adv-x="333" 
d="M123 142q0 -5 1 -13.5t4 -17t8.5 -14.5t14.5 -6q17 0 29.5 9.5t12.5 23.5v140q-37 -16 -53.5 -49.5t-16.5 -72.5zM24 127q0 46 12 79t30 55.5t39 37.5t40 25t32 17.5t16 15.5v18v42q0 7 -0.5 16t-3 16.5t-8.5 12.5t-16 5q-13 0 -19 -8.5t-8 -20.5t-2 -26v-26h-101v23
q0 30 10.5 56.5t28.5 46.5t43 31.5t54 11.5q25 0 47 -9.5t39 -26t27 -39t10 -49.5v-171v-165q0 -37 2 -57t5 -38h-99q-7 8 -8 23.5t-1 20.5h-7q-4 -7 -11 -16t-17.5 -17t-24 -13.5t-28.5 -5.5q-10 0 -24 5t-26.5 19.5t-21.5 41t-9 69.5zM93 694q0 31 22 50.5t53 19.5
t52.5 -19.5t21.5 -50.5t-21.5 -50.5t-52.5 -19.5t-53 19.5t-22 50.5zM131 694q0 -14 11.5 -24.5t25.5 -10.5t25.5 10.5t11.5 24.5t-11.5 24.5t-25.5 10.5t-25.5 -10.5t-11.5 -24.5z" />
    <glyph glyph-name="ae" unicode="&#xe6;" horiz-adv-x="483" 
d="M454 196v-63q-2 -40 -16 -71q-12 -26 -39 -48t-76 -22q-46 0 -71.5 19.5t-38.5 44.5q-21 -27 -48 -45.5t-60 -18.5q-10 0 -24 5t-26.5 19.5t-21.5 41t-9 69.5q0 46 12 79t30 55.5t39 37.5t40 25t32 17.5t16 15.5v60q0 7 -0.5 16t-3 16.5t-8.5 12.5t-16 5q-13 0 -19 -8.5
t-8 -20.5t-2 -26v-26h-101v23q0 30 10.5 56.5t28.5 46.5t43 31.5t54 11.5q41 0 74 -25q14 11 33.5 18t45.5 7q49 0 75.5 -22.5t38.5 -48.5q14 -31 16 -70v-159h-167v-119q1 -16 5 -28q4 -11 11 -19t21 -8t21.5 8t10.5 19q4 12 4 28v60h94zM123 142q0 -5 1 -13.5t4 -17
t8.5 -14.5t14.5 -6q17 0 29.5 9.5t12.5 23.5v140q-37 -16 -53.5 -49.5t-16.5 -72.5zM287 334h73v77q0 16 -4 28q-3 11 -10.5 19.5t-21.5 8.5t-21 -8.5t-11 -19.5q-4 -12 -5 -28v-77z" />
    <glyph glyph-name="ccedilla" unicode="&#xe7;" horiz-adv-x="315" 
d="M133 126q0 -15 4 -29.5t24 -14.5q17 0 23 9.5t6 34.5v76h101v-53q0 -46 -8.5 -76t-25 -48t-40.5 -25.5t-56 -7.5q-27 0 -51 8t-41 27t-27 50t-10 77v239q0 46 10 77t27 50t41 27t51 8q32 0 56 -7.5t40.5 -25.5t25 -48t8.5 -76v-43h-101v66q0 25 -6 34.5t-23 9.5
q-20 0 -24 -14.5t-4 -29.5v-295zM201 -123l-22 -65h-51l20 65h-31v69h84v-69z" />
    <glyph glyph-name="egrave" unicode="&#xe8;" horiz-adv-x="322" 
d="M293 196v-63q-2 -40 -16 -71q-12 -26 -39 -48t-76 -22t-75.5 22.5t-38.5 49.5q-14 32 -16 72v275q2 40 17 72q12 27 38.5 49.5t75.5 22.5t75.5 -22.5t38.5 -48.5q14 -31 16 -70v-159h-167v-119q1 -16 5 -28q4 -11 11 -19t21 -8t21.5 8t10.5 19q4 12 4 28v60h94zM126 334
h73v77q0 16 -4 28q-3 11 -10.5 19.5t-21.5 8.5t-21 -8.5t-11 -19.5q-4 -12 -5 -28v-77zM156 727l52 -90h-78l-79 90h105z" />
    <glyph glyph-name="eacute" unicode="&#xe9;" horiz-adv-x="322" 
d="M293 196v-63q-2 -40 -16 -71q-12 -26 -39 -48t-76 -22t-75.5 22.5t-38.5 49.5q-14 32 -16 72v275q2 40 17 72q12 27 38.5 49.5t75.5 22.5t75.5 -22.5t38.5 -48.5q14 -31 16 -70v-159h-167v-119q1 -16 5 -28q4 -11 11 -19t21 -8t21.5 8t10.5 19q4 12 4 28v60h94zM126 334
h73v77q0 16 -4 28q-3 11 -10.5 19.5t-21.5 8.5t-21 -8.5t-11 -19.5q-4 -12 -5 -28v-77zM287 727l-79 -90h-78l52 90h105z" />
    <glyph glyph-name="ecircumflex" unicode="&#xea;" horiz-adv-x="322" 
d="M293 196v-63q-2 -40 -16 -71q-12 -26 -39 -48t-76 -22t-75.5 22.5t-38.5 49.5q-14 32 -16 72v275q2 40 17 72q12 27 38.5 49.5t75.5 22.5t75.5 -22.5t38.5 -48.5q14 -31 16 -70v-159h-167v-119q1 -16 5 -28q4 -11 11 -19t21 -8t21.5 8t10.5 19q4 12 4 28v60h94zM126 334
h73v77q0 16 -4 28q-3 11 -10.5 19.5t-21.5 8.5t-21 -8.5t-11 -19.5q-4 -12 -5 -28v-77zM216 727l69 -90h-92l-31 35l-30 -35h-92l69 90h107z" />
    <glyph glyph-name="edieresis" unicode="&#xeb;" horiz-adv-x="322" 
d="M293 196v-63q-2 -40 -16 -71q-12 -26 -39 -48t-76 -22t-75.5 22.5t-38.5 49.5q-14 32 -16 72v275q2 40 17 72q12 27 38.5 49.5t75.5 22.5t75.5 -22.5t38.5 -48.5q14 -31 16 -70v-159h-167v-119q1 -16 5 -28q4 -11 11 -19t21 -8t21.5 8t10.5 19q4 12 4 28v60h94zM126 334
h73v77q0 16 -4 28q-3 11 -10.5 19.5t-21.5 8.5t-21 -8.5t-11 -19.5q-4 -12 -5 -28v-77zM45 735h93v-98h-93v98zM186 735h93v-98h-93v98z" />
    <glyph glyph-name="igrave" unicode="&#xec;" horiz-adv-x="181" 
d="M40 0v547h101v-547h-101zM89 727l52 -90h-78l-79 90h105z" />
    <glyph glyph-name="iacute" unicode="&#xed;" horiz-adv-x="181" 
d="M40 0v547h101v-547h-101zM197 727l-79 -90h-78l52 90h105z" />
    <glyph glyph-name="icircumflex" unicode="&#xee;" horiz-adv-x="181" 
d="M40 0v547h101v-547h-101zM144 727l69 -90h-92l-31 35l-30 -35h-92l69 90h107z" />
    <glyph glyph-name="idieresis" unicode="&#xef;" horiz-adv-x="182" 
d="M40 0v547h101v-547h-101zM-26 735h93v-98h-93v98zM115 735h93v-98h-93v98z" />
    <glyph glyph-name="eth" unicode="&#xf0;" horiz-adv-x="329" 
d="M185 736q4 -5 8 -9t8.5 -9.5t9.5 -11.5l46 40l27 -32l-49 -43q23 -36 42 -89.5t19 -128.5v-320q-2 -40 -16 -71q-12 -26 -38.5 -48t-75.5 -22t-75 22.5t-38 49.5q-14 32 -16 72v283q0 7 1 29.5t8.5 46t24.5 42t50 18.5q17 0 36.5 -10.5t39.5 -27.5q-4 31 -10.5 55.5
t-14.5 43.5l-40 -35l-27 31l49 43q-5 8 -9 14t-7 10q-4 4 -6 8zM201 411q1 16 -3 28q-3 11 -10.5 19.5t-21.5 8.5t-21 -8.5t-10 -19.5q-4 -12 -3 -28v-275q-1 -16 3 -28q3 -11 10 -19t21 -8t21.5 8t10.5 19q4 12 3 28v275z" />
    <glyph glyph-name="ntilde" unicode="&#xf1;" horiz-adv-x="337" 
d="M174 457q-8 0 -13.5 -4t-10.5 -9q-5 -6 -9 -13v-431h-101v547h101v-46q3 2 11.5 10.5t19.5 18.5t24.5 17.5t26.5 7.5q20 0 34.5 -10.5t23.5 -26t13.5 -34.5t4.5 -36v-448h-101v433q0 16 -7.5 20t-16.5 4zM126 653q-11 0 -20 -2.5t-17 -5.5q-9 -4 -16 -8v74q7 5 16 9
q8 4 17 7t20 3q23 0 44 -8.5t44 -10.5q11 0 20 2.5t17 5.5q9 4 16 8v-74q-7 -6 -16 -10q-8 -4 -17 -6.5t-20 -2.5q-23 0 -43.5 9t-44.5 10z" />
    <glyph glyph-name="ograve" unicode="&#xf2;" horiz-adv-x="321" 
d="M290 133q-2 -40 -16 -71q-12 -26 -38.5 -48t-75.5 -22t-75 22.5t-38 49.5q-14 32 -16 72v275q2 40 16 72q12 27 38 49.5t75 22.5t75.5 -22.5t38.5 -48.5q14 -31 16 -70v-281zM195 411q1 16 -3 28q-3 11 -10.5 19.5t-21.5 8.5t-21 -8.5t-10 -19.5q-4 -12 -3 -28v-275
q-1 -16 3 -28q3 -11 10 -19t21 -8t21.5 8t10.5 19q4 12 3 28v275zM154 727l52 -90h-78l-79 90h105z" />
    <glyph glyph-name="oacute" unicode="&#xf3;" horiz-adv-x="321" 
d="M290 133q-2 -40 -16 -71q-12 -26 -38.5 -48t-75.5 -22t-75 22.5t-38 49.5q-14 32 -16 72v275q2 40 16 72q12 27 38 49.5t75 22.5t75.5 -22.5t38.5 -48.5q14 -31 16 -70v-281zM195 411q1 16 -3 28q-3 11 -10.5 19.5t-21.5 8.5t-21 -8.5t-10 -19.5q-4 -12 -3 -28v-275
q-1 -16 3 -28q3 -11 10 -19t21 -8t21.5 8t10.5 19q4 12 3 28v275zM285 727l-79 -90h-78l52 90h105z" />
    <glyph glyph-name="ocircumflex" unicode="&#xf4;" horiz-adv-x="321" 
d="M290 133q-2 -40 -16 -71q-12 -26 -38.5 -48t-75.5 -22t-75 22.5t-38 49.5q-14 32 -16 72v275q2 40 16 72q12 27 38 49.5t75 22.5t75.5 -22.5t38.5 -48.5q14 -31 16 -70v-281zM195 411q1 16 -3 28q-3 11 -10.5 19.5t-21.5 8.5t-21 -8.5t-10 -19.5q-4 -12 -3 -28v-275
q-1 -16 3 -28q3 -11 10 -19t21 -8t21.5 8t10.5 19q4 12 3 28v275zM215 727l69 -90h-92l-31 35l-30 -35h-92l69 90h107z" />
    <glyph glyph-name="otilde" unicode="&#xf5;" horiz-adv-x="321" 
d="M290 133q-2 -40 -16 -71q-12 -26 -38.5 -48t-75.5 -22t-75 22.5t-38 49.5q-14 32 -16 72v275q2 40 16 72q12 27 38 49.5t75 22.5t75.5 -22.5t38.5 -48.5q14 -31 16 -70v-281zM195 411q1 16 -3 28q-3 11 -10.5 19.5t-21.5 8.5t-21 -8.5t-10 -19.5q-4 -12 -3 -28v-275
q-1 -16 3 -28q3 -11 10 -19t21 -8t21.5 8t10.5 19q4 12 3 28v275zM118 653q-11 0 -20 -2.5t-17 -5.5q-9 -4 -16 -8v74q7 5 16 9q8 4 17 7t20 3q23 0 44 -8.5t44 -10.5q11 0 20 2.5t17 5.5q9 4 16 8v-74q-7 -6 -16 -10q-8 -4 -17 -6.5t-20 -2.5q-23 0 -43.5 9t-44.5 10z" />
    <glyph glyph-name="odieresis" unicode="&#xf6;" horiz-adv-x="321" 
d="M290 133q-2 -40 -16 -71q-12 -26 -38.5 -48t-75.5 -22t-75 22.5t-38 49.5q-14 32 -16 72v275q2 40 16 72q12 27 38 49.5t75 22.5t75.5 -22.5t38.5 -48.5q14 -31 16 -70v-281zM195 411q1 16 -3 28q-3 11 -10.5 19.5t-21.5 8.5t-21 -8.5t-10 -19.5q-4 -12 -3 -28v-275
q-1 -16 3 -28q3 -11 10 -19t21 -8t21.5 8t10.5 19q4 12 3 28v275zM45 735h93v-98h-93v98zM186 735h93v-98h-93v98z" />
    <glyph glyph-name="oslash" unicode="&#xf8;" horiz-adv-x="321" 
d="M61 -38l15 59q-17 16 -26.5 35.5t-13.5 37.5q-5 20 -5 42v275q2 40 16 72q12 27 38 49.5t75 22.5q15 0 28 -2.5t24 -6.5l10 39h37l-15 -59q17 -16 26 -35t14 -36q5 -20 6 -41v-281q-2 -40 -16 -71q-12 -26 -38.5 -48t-75.5 -22q-28 0 -50 8l-10 -38h-39zM126 213l61 237
q-4 8 -10 12.5t-17 4.5q-14 0 -21 -8.5t-10 -19.5q-4 -12 -3 -28v-198zM160 81q14 0 21.5 8t10.5 19q4 12 3 28v197l-61 -237q8 -15 26 -15z" />
    <glyph glyph-name="ugrave" unicode="&#xf9;" horiz-adv-x="337" 
d="M163 90q8 0 13.5 4t10.5 9t9 13v431h101v-547h-101v46q-3 -2 -11.5 -10.5t-19.5 -18.5t-24.5 -17.5t-26.5 -7.5q-20 0 -34.5 10.5t-23.5 26t-13.5 34.5t-4.5 36v448h101v-433q0 -16 7.5 -20t16.5 -4zM161 727l52 -90h-78l-79 90h105z" />
    <glyph glyph-name="uacute" unicode="&#xfa;" horiz-adv-x="337" 
d="M163 90q8 0 13.5 4t10.5 9t9 13v431h101v-547h-101v46q-3 -2 -11.5 -10.5t-19.5 -18.5t-24.5 -17.5t-26.5 -7.5q-20 0 -34.5 10.5t-23.5 26t-13.5 34.5t-4.5 36v448h101v-433q0 -16 7.5 -20t16.5 -4zM274 727l-79 -90h-78l52 90h105z" />
    <glyph glyph-name="ucircumflex" unicode="&#xfb;" horiz-adv-x="337" 
d="M163 90q8 0 13.5 4t10.5 9t9 13v431h101v-547h-101v46q-3 -2 -11.5 -10.5t-19.5 -18.5t-24.5 -17.5t-26.5 -7.5q-20 0 -34.5 10.5t-23.5 26t-13.5 34.5t-4.5 36v448h101v-433q0 -16 7.5 -20t16.5 -4zM223 727l69 -90h-92l-31 35l-30 -35h-92l69 90h107z" />
    <glyph glyph-name="udieresis" unicode="&#xfc;" horiz-adv-x="337" 
d="M163 90q8 0 13.5 4t10.5 9t9 13v431h101v-547h-101v46q-3 -2 -11.5 -10.5t-19.5 -18.5t-24.5 -17.5t-26.5 -7.5q-20 0 -34.5 10.5t-23.5 26t-13.5 34.5t-4.5 36v448h101v-433q0 -16 7.5 -20t16.5 -4zM53 735h93v-98h-93v98zM194 735h93v-98h-93v98z" />
    <glyph glyph-name="yacute" unicode="&#xfd;" horiz-adv-x="310" 
d="M16 -104q2 -1 6 -1q4 -1 18 -1q16 1 28 10t20 21.5t12.5 28t4.5 30.5l-93 563h99l40 -336l2 -28h4l2 28l40 336h99l-97 -588q-4 -29 -15 -56.5t-29 -49.5t-42 -35.5t-54 -13.5h-12t-15 1q-9 0 -18 1v90zM271 727l-79 -90h-78l52 90h105z" />
    <glyph glyph-name="thorn" unicode="&#xfe;" horiz-adv-x="335" 
d="M40 735h101v-224q13 12 26 22q11 8 25.5 15t28.5 7q21 0 35.5 -10.5t24 -26t14 -34.5t4.5 -36v-349q0 -17 -4.5 -36t-14 -34.5t-24 -26t-35.5 -10.5q-14 0 -28.5 7t-25.5 15q-13 10 -26 22v-224h-101v923zM141 120q0 -12 9.5 -22.5t20.5 -10.5t19 9.5t8 23.5v307
q0 14 -8 23.5t-19 9.5t-20.5 -9.5t-9.5 -23.5v-307z" />
    <glyph glyph-name="ydieresis" unicode="&#xff;" horiz-adv-x="310" 
d="M16 -104q2 -1 6 -1q4 -1 18 -1q16 1 28 10t20 21.5t12.5 28t4.5 30.5l-93 563h99l40 -336l2 -28h4l2 28l40 336h99l-97 -588q-4 -29 -15 -56.5t-29 -49.5t-42 -35.5t-54 -13.5h-12t-15 1q-9 0 -18 1v90zM39 735h93v-98h-93v98zM180 735h93v-98h-93v98z" />
    <glyph glyph-name="dotlessi" unicode="&#x131;" horiz-adv-x="181" 
d="M40 0v547h101v-547h-101z" />
    <glyph glyph-name="Lslash" unicode="&#x141;" horiz-adv-x="307" 
d="M20 382l32 25v328h108v-244l59 46v-108l-59 -46v-283h143v-100h-251v299l-32 -25v108z" />
    <glyph glyph-name="lslash" unicode="&#x142;" horiz-adv-x="229" 
d="M64 0v312l-49 -38v108l49 38v315h101v-236l49 38v-108l-49 -38v-391h-101z" />
    <glyph glyph-name="OE" unicode="&#x152;" horiz-adv-x="480" 
d="M177 0q-27 0 -48 6.5t-36 17t-25 24t-17 27.5q-16 33 -18 76v433q2 42 18 75q7 14 17 28t25 24.5t36 17t48 6.5h283v-111h-139v-193h100v-118h-100v-202h139v-111h-283zM213 591q0 5 -1.5 13t-5.5 15.5t-11 13t-18 5.5q-14 0 -21.5 -8.5t-10.5 -18.5q-4 -12 -4 -27v-433
q0 -16 4 -27q3 -11 10.5 -19t21.5 -8t21.5 8t10.5 19q4 11 4 27v440z" />
    <glyph glyph-name="oe" unicode="&#x153;" horiz-adv-x="486" 
d="M457 196v-63q-2 -40 -16 -71q-12 -26 -39 -48t-76 -22q-28 0 -48.5 7.5t-34.5 20.5q-14 -12 -34.5 -20t-48.5 -8q-49 0 -75 22.5t-38 49.5q-14 32 -16 72v275q2 40 16 72q12 27 38 49.5t75 22.5q29 0 49.5 -8t34.5 -21q14 13 34 21t49 8q49 0 75.5 -22.5t38.5 -48.5
q14 -31 16 -70v-159h-167v-122q0 -3 1 -11.5t5 -17.5t11.5 -16t19.5 -7q14 0 21.5 8t10.5 19q4 12 4 28v60h94zM195 411q1 16 -3 28q-3 11 -10.5 19.5t-21.5 8.5t-21 -8.5t-10 -19.5q-4 -12 -3 -28v-275q-1 -16 3 -28q3 -11 10 -19t21 -8t21.5 8t10.5 19q4 12 3 28v275z
M290 334h73v77q0 16 -4 28q-3 11 -10.5 19.5t-21.5 8.5q-12 0 -19.5 -7t-11.5 -16t-5 -17.5t-1 -12.5v-80z" />
    <glyph glyph-name="Scaron" unicode="&#x160;" horiz-adv-x="343" 
d="M33 571q0 30 7.5 60.5t24.5 55t44 40t65 16.5q49 1 78.5 -17.5t45.5 -48t21.5 -64t5.5 -65.5l-106 -10q0 18 -1.5 37t-6.5 34.5t-13.5 25t-21.5 9.5q-21 -1 -29 -21t-8 -52q0 -19 7.5 -38.5t19.5 -40.5t27 -43t31 -45q19 -28 37 -56t32 -56t23 -56.5t9 -58.5
q0 -37 -7 -70.5t-24 -59t-46 -40.5t-73 -15q-52 0 -83 18t-47.5 48t-21.5 68.5t-5 79.5l106 10q0 -23 1.5 -45.5t7 -40t15.5 -28.5t27 -11q24 0 34 23t10 58q0 18 -8 38.5t-20.5 42t-28 44t-30.5 45.5q-19 28 -37 56t-31.5 56.5t-22 57.5t-8.5 59zM119 800l-69 90h92l30 -35
l31 35h92l-69 -90h-107z" />
    <glyph glyph-name="scaron" unicode="&#x161;" horiz-adv-x="308" 
d="M35 407q0 24 5.5 50t19.5 47.5t38 35.5t60 15q44 1 70 -13.5t39 -36.5t16.5 -48.5t3.5 -49.5h-94q0 10 -0.5 21t-4 20.5t-10 16t-18.5 6.5q-10 0 -16 -6.5t-9.5 -15.5t-4.5 -20.5t-1 -21.5q0 -13 6 -26t15.5 -25t21 -24t23.5 -23q16 -16 33 -34t30 -38.5t21.5 -44
t8.5 -50.5q0 -26 -6.5 -52.5t-22 -48t-40 -35.5t-60.5 -14q-46 0 -74 18t-43 43.5t-19.5 54.5t-4.5 51h94q0 -11 1.5 -25.5t6.5 -27t14 -21.5t25 -9q22 0 28.5 21t6.5 45q0 25 -20 49.5t-43 47.5q-18 17 -35 34t-30.5 37t-22 43.5t-8.5 53.5zM102 637l-69 90h92l30 -35
l31 35h92l-69 -90h-107z" />
    <glyph glyph-name="Ydieresis" unicode="&#x178;" horiz-adv-x="344" 
d="M168 500l3 -27h2l3 27l54 235h106l-110 -422v-313h-108v313l-110 422h106zM56 898h93v-98h-93v98zM197 898h93v-98h-93v98z" />
    <glyph glyph-name="Zcaron" unicode="&#x17d;" horiz-adv-x="306" 
d="M10 116l169 512h-145v107h262v-107l-172 -521h172v-107h-286v116zM113 800l-69 90h92l30 -35l31 35h92l-69 -90h-107z" />
    <glyph glyph-name="zcaron" unicode="&#x17e;" horiz-adv-x="260" 
d="M6 82l139 373h-117v92h224v-82l-139 -373h139v-92h-246v82zM82 637l-69 90h92l30 -35l31 35h92l-69 -90h-107z" />
    <glyph glyph-name="circumflex" unicode="&#x2c6;" horiz-adv-x="499" 
d="M303 727l69 -90h-92l-31 35l-30 -35h-92l69 90h107z" />
    <glyph glyph-name="caron" unicode="&#x2c7;" horiz-adv-x="499" 
d="M196 637l-69 90h92l30 -35l31 35h92l-69 -90h-107z" />
    <glyph glyph-name="breve" unicode="&#x2d8;" horiz-adv-x="500" 
d="M360 683q-13 -13 -30 -24q-14 -9 -34 -16t-46 -7t-46.5 7t-34.5 16q-17 11 -29 24l54 46q5 -7 14 -12q7 -5 17.5 -8t24.5 -3t24.5 3t18.5 8q9 5 15 12z" />
    <glyph glyph-name="dotaccent" unicode="&#x2d9;" horiz-adv-x="499" 
d="M199 735h101v-101h-101v101z" />
    <glyph glyph-name="ring" unicode="&#x2da;" horiz-adv-x="499" 
d="M175 694q0 31 22 50.5t53 19.5t52.5 -19.5t21.5 -50.5t-21.5 -50.5t-52.5 -19.5t-53 19.5t-22 50.5zM213 694q0 -14 11.5 -24.5t25.5 -10.5t25.5 10.5t11.5 24.5t-11.5 24.5t-25.5 10.5t-25.5 -10.5t-11.5 -24.5z" />
    <glyph glyph-name="ogonek" unicode="&#x2db;" horiz-adv-x="500" 
d="M170 -103q0 21 10 39.5t23 32.5q14 17 33 31h48q-13 -11 -23 -24q-8 -11 -15 -26t-7 -33q0 -22 16.5 -30t33.5 -8q13 0 23 2.5t19 6.5l-8 -67q-16 -5 -27 -7t-24 -2q-49 0 -75.5 25.5t-26.5 59.5z" />
    <glyph glyph-name="tilde" unicode="&#x2dc;" horiz-adv-x="500" 
d="M206 653q-11 0 -20 -2.5t-17 -5.5q-9 -4 -16 -8v74q7 5 16 9q8 4 17 7t20 3q23 0 44 -8.5t44 -10.5q11 0 20 2.5t17 5.5q9 4 16 8v-74q-7 -6 -16 -10q-8 -4 -17 -6.5t-20 -2.5q-23 0 -43.5 9t-44.5 10z" />
    <glyph glyph-name="hungarumlaut" unicode="&#x2dd;" horiz-adv-x="500" 
d="M262 727l-79 -90h-78l52 90h105zM410 727l-79 -90h-78l52 90h105z" />
    <glyph glyph-name="afii10023" unicode="&#x401;" horiz-adv-x="307" 
d="M40 735h247v-111h-139v-193h100v-118h-100v-202h139v-111h-247v735zM47 898h93v-98h-93v98zM188 898h93v-98h-93v98z" />
    <glyph glyph-name="afii10052" unicode="&#x403;" horiz-adv-x="301" 
d="M297 624h-149v-624h-108v735h257v-111zM301 890l-79 -90h-78l52 90h105z" />
    <glyph glyph-name="afii10053" unicode="&#x404;" horiz-adv-x="346" 
d="M321 252v-101q-2 -45 -18 -80q-7 -15 -17.5 -29t-25.5 -25.5t-35.5 -18t-47.5 -6.5t-48 6.5t-36 18t-25 25.5t-17 29q-16 35 -18 80v433q2 44 18 79q7 15 17 29.5t25 25.5t36 18t48 7t47.5 -7t35.5 -18t25.5 -25.5t17.5 -29.5q16 -35 18 -79v-101h-101v101q0 15 -4 27
q-4 10 -12 18.5t-25 8.5q-14 0 -21.5 -8.5t-11.5 -18.5q-4 -12 -5 -27v-153h79v-118h-79v-162q1 -16 5 -27t11.5 -19t21.5 -8q17 0 25 8t12 19t4 27v101h101z" />
    <glyph glyph-name="afii10054" unicode="&#x405;" horiz-adv-x="343" 
d="M33 571q0 30 7.5 60.5t24.5 55t44 40t65 16.5q49 1 78.5 -17.5t45.5 -48t21.5 -64t5.5 -65.5l-106 -10q0 18 -1.5 37t-6.5 34.5t-13.5 25t-21.5 9.5q-21 -1 -29 -21t-8 -52q0 -19 7.5 -38.5t19.5 -40.5t27 -43t31 -45q19 -28 37 -56t32 -56t23 -56.5t9 -58.5
q0 -37 -7 -70.5t-24 -59t-46 -40.5t-73 -15q-52 0 -83 18t-47.5 48t-21.5 68.5t-5 79.5l106 10q0 -23 1.5 -45.5t7 -40t15.5 -28.5t27 -11q24 0 34 23t10 58q0 18 -8 38.5t-20.5 42t-28 44t-30.5 45.5q-19 28 -37 56t-31.5 56.5t-22 57.5t-8.5 59z" />
    <glyph glyph-name="afii10055" unicode="&#x406;" horiz-adv-x="188" 
d="M40 735h108v-735h-108v735z" />
    <glyph glyph-name="afii10056" unicode="&#x407;" horiz-adv-x="182" 
d="M38 735h108v-735h-108v735zM-25 898h93v-98h-93v98zM116 898h93v-98h-93v98z" />
    <glyph glyph-name="afii10057" unicode="&#x408;" horiz-adv-x="207" 
d="M6 99q16 -2 29 2q11 4 20 15.5t9 36.5v582h108v-599q0 -30 -8 -57t-27 -47t-51 -31t-80 -8v106z" />
    <glyph glyph-name="afii10058" unicode="&#x409;" horiz-adv-x="559" 
d="M6 99q17 -2 29 2q11 4 19.5 15.5t9.5 36.5l15 582h261v-294q35 0 69 -11t61 -36.5t43.5 -68t16.5 -105.5t-16.5 -105.5t-43.5 -68t-61 -36t-69 -10.5h-108v624h-45l-15 -488q-1 -30 -9 -57t-27 -47t-50.5 -31t-79.5 -8v106zM340 110q25 0 41 6.5t25 20t12 35t3 52.5
t-3 51.5t-12 33t-25 17.5t-41 5v-221z" />
    <glyph glyph-name="afii10059" unicode="&#x40a;" horiz-adv-x="552" 
d="M223 320h-84v-320h-108v735h108v-304h84v304h108v-294q35 0 69 -11t61 -36.5t43.5 -68t16.5 -105.5t-16.5 -105.5t-43.5 -68t-61 -36t-69 -10.5h-108v320zM331 110q25 0 41 6.5t25 20t12 35t3 52.5t-3 51.5t-12 33t-25 17.5t-41 5v-221z" />
    <glyph glyph-name="afii10060" unicode="&#x40b;" horiz-adv-x="427" 
d="M3 624v111h312v-111h-102v-183q35 0 69 -11t61 -36.5t43.5 -68t16.5 -105.5v-220h-109v224q0 31 -3 51.5t-12 33t-25 17.5t-41 5v-331h-108v624h-102z" />
    <glyph glyph-name="afii10061" unicode="&#x40c;" 
d="M148 735v-245v-32h4l5 32l90 245h105l-99 -242l112 -493h-105l-75 320l-3 15h-3l-6 -15l-25 -60v-260h-108v735h108zM301 890l-79 -90h-78l52 90h105z" />
    <glyph glyph-name="afii10062" unicode="&#x40e;" horiz-adv-x="350" 
d="M33 84q2 -1 6 -1q4 -1 18 -1q16 1 26.5 10t17 21.5t9 28t2.5 30.5l-103 563h109l55 -406l2 -28h4l2 28l45 406h99l-87 -588q-4 -29 -18 -56.5t-35.5 -49.5t-49 -35.5t-57.5 -13.5h-12t-15 1q-9 0 -18 1v90zM286 846q-13 -13 -30 -24q-14 -9 -34 -16t-46 -7t-46.5 7
t-34.5 16q-17 11 -29 24l54 46q5 -7 14 -12q7 -5 17.5 -8t24.5 -3t24.5 3t18.5 8q9 5 15 12z" />
    <glyph glyph-name="afii10145" unicode="&#x40f;" horiz-adv-x="380" 
d="M136 0h-96v735h108v-624h84v624h108v-735h-96v-124h-108v124z" />
    <glyph glyph-name="afii10017" unicode="&#x410;" horiz-adv-x="374" 
d="M10 0l111 735h132l111 -735h-105l-20 150h-104l-20 -150h-105zM193 496l-3 39h-6l-3 -39l-31 -232h74z" />
    <glyph glyph-name="afii10018" unicode="&#x411;" horiz-adv-x="352" 
d="M297 624h-149v-183q35 0 69 -11t61 -36.5t43.5 -68t16.5 -105.5t-16.5 -105.5t-43.5 -68t-61 -36t-69 -10.5h-108v735h257v-111zM148 110q25 0 41 6.5t25 20t12 35t3 52.5t-3 51.5t-12 33t-25 17.5t-41 5v-221z" />
    <glyph glyph-name="afii10019" unicode="&#x412;" horiz-adv-x="364" 
d="M40 0v735h95q48 0 85 -10t62 -33t37.5 -60t12.5 -92q0 -26 -3 -46.5t-11 -38.5t-21 -34t-32 -33q20 -11 37 -35q14 -20 26 -55t12 -90q0 -41 -8 -77.5t-27 -65t-51.5 -46t-80.5 -19.5h-133zM228 220q0 45 -9.5 68.5t-23 33.5t-27 10.5t-20.5 0.5v-226q7 0 20.5 0.5
t27 10.5t23 33.5t9.5 68.5zM228 530q0 38 -9.5 58t-23 29t-27 10t-20.5 1v-196q7 0 20.5 1t27 10t23 29t9.5 58z" />
    <glyph glyph-name="afii10020" unicode="&#x413;" horiz-adv-x="301" 
d="M297 624h-149v-624h-108v735h257v-111z" />
    <glyph glyph-name="afii10021" unicode="&#x414;" horiz-adv-x="401" 
d="M114 -124h-108v235h18q13 2 25 12.5t13 41.5l17 570h261v-624h54v-235h-108v124h-172v-124zM172 198q0 -24 -5 -46.5t-17 -40.5h82v513h-45z" />
    <glyph glyph-name="afii10022" unicode="&#x415;" horiz-adv-x="307" 
d="M40 735h247v-111h-139v-193h100v-118h-100v-202h139v-111h-247v735z" />
    <glyph glyph-name="afii10024" unicode="&#x416;" horiz-adv-x="571" 
d="M227 260l-25 60l-6 15h-3l-3 -15l-75 -320h-105l112 493l-99 242h105l90 -245l5 -22h4v22v245h108v-245v-22h4l5 22l90 245h105l-99 -242l112 -493h-105l-75 320l-3 15h-3l-6 -15l-25 -60v-260h-108v260z" />
    <glyph glyph-name="afii10025" unicode="&#x417;" horiz-adv-x="335" 
d="M112 332v90q34 2 51 9.5t24 23t7 39.5v59q0 16 -0.5 32.5t-3.5 30.5t-10 23t-20 9q-10 0 -16 -5.5t-9.5 -20t-5 -38.5t-1.5 -61h-106q0 31 2.5 69.5t16 72t41 56t78.5 22.5t79 -22t41.5 -50t16.5 -53.5t3 -32.5q0 -82 -13.5 -125.5t-38.5 -68.5l-1 -1q39 -31 50.5 -84.5
t11.5 -117.5q0 -5 -1 -21t-5.5 -38t-13 -46t-24 -44.5t-39 -33.5t-57.5 -13q-51 0 -79.5 22.5t-42.5 56t-17.5 72t-3.5 69.5h106q0 -37 2 -61t6.5 -38.5t11.5 -20t17 -5.5q13 0 20 8.5t10 22t3.5 30t0.5 32.5q0 35 0.5 62.5t-6 46.5t-24 30t-52.5 13h-9z" />
    <glyph glyph-name="afii10026" unicode="&#x418;" horiz-adv-x="395" 
d="M136 0h-96v735h99v-383v-34h6l9 34l105 383h96v-735h-99v383v34h-6l-9 -34z" />
    <glyph glyph-name="afii10027" unicode="&#x419;" horiz-adv-x="395" 
d="M136 0h-96v735h99v-383v-34h6l9 34l105 383h96v-735h-99v383v34h-6l-9 -34zM308 846q-13 -13 -30 -24q-14 -9 -34 -16t-46 -7t-46.5 7t-34.5 16q-17 11 -29 24l54 46q5 -7 14 -12q7 -5 17.5 -8t24.5 -3t24.5 3t18.5 8q9 5 15 12z" />
    <glyph glyph-name="afii10028" unicode="&#x41a;" 
d="M148 735v-245v-32h4l5 32l90 245h105l-99 -242l112 -493h-105l-75 320l-3 15h-3l-6 -15l-25 -60v-260h-108v735h108z" />
    <glyph glyph-name="afii10029" unicode="&#x41b;" horiz-adv-x="380" 
d="M6 99q17 -2 29 2q11 4 19.5 15.5t9.5 36.5l15 582h261v-735h-108v624h-45l-15 -488q-1 -30 -9 -57t-27 -47t-50.5 -31t-79.5 -8v106z" />
    <glyph glyph-name="afii10030" unicode="&#x41c;" horiz-adv-x="484" 
d="M219 0l-69 462l-4 31h-6v-31v-462h-100v735h132l64 -336l5 -39h2l5 39l64 336h132v-735h-100v462v31h-6l-4 -31l-69 -462h-46z" />
    <glyph glyph-name="afii10031" unicode="&#x41d;" horiz-adv-x="380" 
d="M232 320h-84v-320h-108v735h108v-304h84v304h108v-735h-108v320z" />
    <glyph glyph-name="afii10032" unicode="&#x41e;" horiz-adv-x="354" 
d="M321 151q-2 -45 -18 -80q-7 -15 -17.5 -29t-25.5 -25.5t-35.5 -18t-47.5 -6.5t-48 6.5t-36 18t-25 25.5t-17 29q-16 35 -18 80v433q2 44 18 79q7 15 17 29.5t25 25.5t36 18t48 7t47.5 -7t35.5 -18t25.5 -25.5t17.5 -29.5q16 -35 18 -79v-433zM213 584q0 15 -4 27
q-3 10 -10.5 18.5t-21.5 8.5t-21.5 -8.5t-10.5 -18.5q-4 -12 -4 -27v-433q0 -16 4 -27q3 -11 10.5 -19t21.5 -8t21.5 8t10.5 19q4 11 4 27v433z" />
    <glyph glyph-name="afii10033" unicode="&#x41f;" horiz-adv-x="380" 
d="M232 624h-84v-624h-108v735h300v-735h-108v624z" />
    <glyph glyph-name="afii10034" unicode="&#x420;" horiz-adv-x="352" 
d="M40 735h108q35 0 69 -10.5t61 -36t43.5 -68t16.5 -105.5t-16.5 -105.5t-43.5 -68t-61 -36.5t-69 -11v-294h-108v735zM148 404q25 0 41 5t25 17.5t12 33t3 51.5t-3 52.5t-12 35t-25 20t-41 6.5v-221z" />
    <glyph glyph-name="afii10035" unicode="&#x421;" horiz-adv-x="346" 
d="M321 252v-101q-2 -45 -18 -80q-7 -15 -17.5 -29t-25.5 -25.5t-35.5 -18t-47.5 -6.5t-48 6.5t-36 18t-25 25.5t-17 29q-16 35 -18 80v433q2 44 18 79q7 15 17 29.5t25 25.5t36 18t48 7t47.5 -7t35.5 -18t25.5 -25.5t17.5 -29.5q16 -35 18 -79v-101h-101v101q0 15 -4 27
q-4 10 -12 18.5t-25 8.5q-14 0 -21.5 -8.5t-11.5 -18.5q-4 -12 -5 -27v-433q1 -16 5 -27t11.5 -19t21.5 -8q17 0 25 8t12 19t4 27v101h101z" />
    <glyph glyph-name="afii10036" unicode="&#x422;" horiz-adv-x="316" 
d="M2 624v111h312v-111h-102v-624h-108v624h-102z" />
    <glyph glyph-name="afii10037" unicode="&#x423;" horiz-adv-x="350" 
d="M33 84q2 -1 6 -1q4 -1 18 -1q16 1 26.5 10t17 21.5t9 28t2.5 30.5l-103 563h109l55 -406l2 -28h4l2 28l45 406h99l-87 -588q-4 -29 -18 -56.5t-35.5 -49.5t-49 -35.5t-57.5 -13.5h-12t-15 1q-9 0 -18 1v90z" />
    <glyph glyph-name="afii10038" unicode="&#x424;" horiz-adv-x="521" 
d="M206 176q-35 0 -69 11t-61 36.5t-43.5 68t-16.5 105.5t16.5 105.5t43.5 68t61 36t69 10.5h1v118h107v-118h1q35 0 69 -10.5t61 -36t43.5 -68t16.5 -105.5t-16.5 -105.5t-43.5 -68t-61 -36.5t-69 -11v-176h-109v176zM206 507q-26 0 -41.5 -6.5t-24.5 -20t-12 -35t-3 -52.5
t3 -51.5t12 -33t24.5 -17.5t41.5 -5v221zM315 286q25 0 41 5t25 17.5t12 33t3 51.5t-3 52.5t-12 35t-25 20t-41 6.5v-221z" />
    <glyph glyph-name="afii10039" unicode="&#x425;" horiz-adv-x="360" 
d="M114 0h-106l119 386l-117 349h106l59 -186l3 -9h4l3 9l59 186h106l-117 -349l119 -386h-106l-62 219l-2 9h-4l-2 -9z" />
    <glyph glyph-name="afii10040" unicode="&#x426;" horiz-adv-x="394" 
d="M286 0h-246v735h108v-624h84v624h108v-624h54v-235h-108v124z" />
    <glyph glyph-name="afii10041" unicode="&#x427;" horiz-adv-x="352" 
d="M139 511q0 -31 3 -51.5t12 -33t24.5 -17.5t41.5 -5v331h108v-735h-108v294q-35 0 -69 11t-61 36.5t-43.5 68t-16.5 105.5v220h109v-224z" />
    <glyph glyph-name="afii10042" unicode="&#x428;" horiz-adv-x="532" 
d="M384 735h108v-735h-452v735h108v-624h64v624h108v-624h64v624z" />
    <glyph glyph-name="afii10043" unicode="&#x429;" horiz-adv-x="550" 
d="M40 0v735h108v-624h64v624h108v-624h64v624h108v-624h54v-235h-108v124h-398z" />
    <glyph glyph-name="afii10044" unicode="&#x42a;" horiz-adv-x="382" 
d="M1 735h177v-294q35 0 69 -11t61 -36.5t43.5 -68t16.5 -105.5t-16.5 -105.5t-43.5 -68t-61 -36t-69 -10.5h-108v624h-69v111zM178 110q25 0 41 6.5t25 20t12 35t3 52.5t-3 51.5t-12 33t-25 17.5t-41 5v-221z" />
    <glyph glyph-name="afii10045" unicode="&#x42b;" horiz-adv-x="526" 
d="M40 735h108v-294q35 0 69 -11t61 -36.5t43.5 -68t16.5 -105.5t-16.5 -105.5t-43.5 -68t-61 -36t-69 -10.5h-108v735zM148 110q25 0 41 6.5t25 20t12 35t3 52.5t-3 51.5t-12 33t-25 17.5t-41 5v-221zM378 0h108v735h-108v-735z" />
    <glyph glyph-name="afii10046" unicode="&#x42c;" horiz-adv-x="352" 
d="M40 735h108v-294q35 0 69 -11t61 -36.5t43.5 -68t16.5 -105.5t-16.5 -105.5t-43.5 -68t-61 -36t-69 -10.5h-108v735zM148 110q25 0 41 6.5t25 20t12 35t3 52.5t-3 51.5t-12 33t-25 17.5t-41 5v-221z" />
    <glyph glyph-name="afii10047" unicode="&#x42d;" horiz-adv-x="346" 
d="M134 252v-101q0 -16 4 -27t12 -19t25 -8q14 0 21.5 8t11.5 19t5 27v162h-79v118h79v153q-1 15 -5 27q-4 10 -11.5 18.5t-21.5 8.5q-17 0 -25 -8.5t-12 -18.5q-4 -12 -4 -27v-101h-101v101q2 44 18 79q7 15 17 29.5t25 25.5t36 18t48 7t47.5 -7t35.5 -18t25.5 -25.5
t17.5 -29.5q16 -35 18 -79v-433q-2 -45 -18 -80q-7 -15 -17.5 -29t-25.5 -25.5t-35.5 -18t-47.5 -6.5t-48 6.5t-36 18t-25 25.5t-17 29q-16 35 -18 80v101h101z" />
    <glyph glyph-name="afii10048" unicode="&#x42e;" horiz-adv-x="541" 
d="M212 584q2 44 18 79q7 15 17 29.5t25 25.5t36 18t48 7t47.5 -7t35.5 -18t25.5 -25.5t17.5 -29.5q16 -35 18 -79v-433q-2 -45 -18 -80q-7 -15 -17.5 -29t-25.5 -25.5t-35.5 -18t-47.5 -6.5t-48 6.5t-36 18t-25 25.5t-17 29q-16 35 -18 80v169h-64v-320h-108v735h108v-304
h64v153zM392 584q0 15 -4 27q-3 10 -10.5 18.5t-21.5 8.5t-21.5 -8.5t-10.5 -18.5q-4 -12 -4 -27v-433q0 -16 4 -27q3 -11 10.5 -19t21.5 -8t21.5 8t10.5 19q4 11 4 27v433z" />
    <glyph glyph-name="afii10049" unicode="&#x42f;" horiz-adv-x="361" 
d="M30 0l69 356q-31 21 -45.5 66.5t-14.5 100.5q0 104 43.5 158t140.5 54h108v-735h-108v310h-29l-56 -310h-108zM143 519q0 -39 8.5 -61t20.5 -32.5t26 -13t25 -2.5v218q-11 0 -25 -2.5t-26 -13t-20.5 -32.5t-8.5 -61z" />
    <glyph glyph-name="afii10065" unicode="&#x430;" horiz-adv-x="333" 
d="M123 142q0 -5 1 -13.5t4 -17t8.5 -14.5t14.5 -6q17 0 29.5 9.5t12.5 23.5v140q-37 -16 -53.5 -49.5t-16.5 -72.5zM24 127q0 46 12 79t30 55.5t39 37.5t40 25t32 17.5t16 15.5v18v42q0 7 -0.5 16t-3 16.5t-8.5 12.5t-16 5q-13 0 -19 -8.5t-8 -20.5t-2 -26v-26h-101v23
q0 30 10.5 56.5t28.5 46.5t43 31.5t54 11.5q25 0 47 -9.5t39 -26t27 -39t10 -49.5v-171v-165q0 -37 2 -57t5 -38h-99q-7 8 -8 23.5t-1 20.5h-7q-4 -7 -11 -16t-17.5 -17t-24 -13.5t-28.5 -5.5q-10 0 -24 5t-26.5 19.5t-21.5 41t-9 69.5z" />
    <glyph glyph-name="afii10066" unicode="&#x431;" horiz-adv-x="335" 
d="M203 411q1 16 -3 28q-3 11 -10.5 19.5t-21.5 8.5t-21 -8.5t-10 -19.5q-4 -12 -3 -28v-275q-1 -16 3 -28q3 -11 10 -19t21 -8t21.5 8t10.5 19q4 12 3 28v275zM297 734q-2 -40 -16 -72q-12 -27 -38 -49.5t-75 -22.5q-14 0 -21 -8.5t-10 -19.5q-4 -12 -3 -27v-28
q15 13 30 24q13 9 28 16.5t29 7.5q21 0 35.5 -10.5t24 -26t14 -34.5t4.5 -36v-315q-2 -40 -16 -71q-12 -26 -38.5 -48t-75.5 -22t-75 22.5t-38 49.5q-14 32 -16 72v399q2 40 16 72q12 27 38 49.5t75 22.5q14 0 21 8t10 19q4 12 3 28h94z" />
    <glyph glyph-name="afii10067" unicode="&#x432;" horiz-adv-x="332" 
d="M31 0v547h137q38 0 63.5 -14t41 -35.5t22 -48.5t6.5 -53q0 -32 -6.5 -52t-17 -33.5t-24 -21.5t-28.5 -16q15 -8 28.5 -16t24 -21t17 -33t6.5 -52q0 -26 -6.5 -53t-22 -49t-41 -35.5t-63.5 -13.5h-137zM144 308q12 0 23.5 2.5t20.5 11.5t14 26.5t5 47.5q0 26 -6.5 46.5
t-29.5 20.5h-42v-155h15zM129 239v-155h42q23 0 29.5 20t6.5 48q0 30 -5 47.5t-14 26t-20.5 11t-23.5 2.5h-15z" />
    <glyph glyph-name="afii10068" unicode="&#x433;" horiz-adv-x="266" 
d="M264 459h-119v-459h-105v547h224v-88z" />
    <glyph glyph-name="afii10069" unicode="&#x434;" horiz-adv-x="368" 
d="M106 0v-124h-101v204h28q13 0 19 9t8.5 21.5t3 26.5t0.5 23l11 387h239v-467h49v-204h-101v124h-156zM165 168q-1 -18 -2 -41.5t-7 -46.5h57v387h-37z" />
    <glyph glyph-name="afii10070" unicode="&#x435;" horiz-adv-x="322" 
d="M293 196v-63q-2 -40 -16 -71q-12 -26 -39 -48t-76 -22t-75.5 22.5t-38.5 49.5q-14 32 -16 72v275q2 40 17 72q12 27 38.5 49.5t75.5 22.5t75.5 -22.5t38.5 -48.5q14 -31 16 -70v-159h-167v-119q1 -16 5 -28q4 -11 11 -19t21 -8t21.5 8t10.5 19q4 12 4 28v60h94zM126 334
h73v77q0 16 -4 28q-3 11 -10.5 19.5t-21.5 8.5t-21 -8.5t-11 -19.5q-4 -12 -5 -28v-77z" />
    <glyph glyph-name="afii10072" unicode="&#x436;" horiz-adv-x="461" 
d="M180 189l-13 32l-3 8h-5l-2 -8l-50 -221h-97l92 369l-73 178h91l49 -143l6 -18h5v18v143h101v-143v-18h5l6 18l49 143h91l-73 -178l92 -369h-97l-50 221l-2 8h-5l-3 -8l-13 -32v-189h-101v189z" />
    <glyph glyph-name="afii10073" unicode="&#x437;" horiz-adv-x="332" 
d="M144 308q12 4 23.5 8t20 13.5t14 27t5.5 47.5q0 26 -6.5 46.5t-29.5 20.5q-15 0 -24 -9t-14 -21.5t-6.5 -27t-1.5 -25.5h-94q0 22 5 51t19.5 54.5t41.5 43.5t71 18q38 0 63.5 -14t41 -35.5t22 -48.5t6.5 -53q0 -29 -6.5 -48.5t-17 -34t-24 -25.5t-28.5 -23
q15 -12 28.5 -23t24 -25t17 -33.5t6.5 -48.5q0 -26 -6.5 -53t-22 -49t-41 -35.5t-63.5 -13.5q-44 0 -71 18t-41.5 43.5t-19.5 54.5t-5 51h94q0 -10 1.5 -24.5t6 -27.5t14 -22t24.5 -9q23 0 29.5 20t6.5 48q0 30 -5 46.5t-13.5 25t-20 13t-24.5 10.5v69z" />
    <glyph glyph-name="afii10074" unicode="&#x438;" horiz-adv-x="342" 
d="M31 547h94v-339h6l9 54l53 285h118v-547h-94v347h-6l-9 -54l-56 -293h-115v547z" />
    <glyph glyph-name="afii10075" unicode="&#x439;" horiz-adv-x="342" 
d="M31 547h94v-339h6l9 54l53 285h118v-547h-94v347h-6l-9 -54l-56 -293h-115v547zM282 683q-13 -13 -30 -24q-14 -9 -34 -16t-46 -7t-46.5 7t-34.5 16q-17 11 -29 24l54 46q5 -7 14 -12q7 -5 17.5 -8t24.5 -3t24.5 3t18.5 8q9 5 15 12z" />
    <glyph glyph-name="afii10076" unicode="&#x43a;" horiz-adv-x="313" 
d="M141 547v-143v-18h5l6 18l49 143h91l-73 -178l92 -369h-97l-50 221l-2 8h-5l-3 -8l-13 -32v-189h-101v547h101z" />
    <glyph glyph-name="afii10077" unicode="&#x43b;" horiz-adv-x="337" 
d="M80 547h239v-547h-101v467h-37l-11 -299q-1 -21 -3 -51t-12.5 -57.5t-34 -46.5t-66.5 -19q-24 0 -34 3q-6 1 -10 3v93q5 -1 9 -2q10 -2 19 -2q13 0 19 9t8.5 21.5t3 26.5t0.5 23z" />
    <glyph glyph-name="afii10078" unicode="&#x43c;" horiz-adv-x="460" 
d="M224 219l5 -39h2l5 39l57 328h136v-547h-97v313h-6l-4 -31l-54 -282h-76l-54 282l-4 31h-6v-313h-97v547h136z" />
    <glyph glyph-name="afii10079" unicode="&#x43d;" horiz-adv-x="321" 
d="M132 334h57v213h101v-547h-101v255h-57v-255h-101v547h101v-213z" />
    <glyph glyph-name="afii10080" unicode="&#x43e;" horiz-adv-x="323" 
d="M291 133q-2 -40 -16 -71q-12 -26 -38.5 -48t-75.5 -22t-75 22.5t-38 49.5q-14 32 -16 72v275q2 40 16 72q12 27 38 49.5t75 22.5t75.5 -22.5t38.5 -48.5q14 -31 16 -70v-281zM196 411q1 16 -3 28q-3 11 -10.5 19.5t-21.5 8.5t-21 -8.5t-10 -19.5q-4 -12 -3 -28v-275
q-1 -16 3 -28q3 -11 10 -19t21 -8t21.5 8t10.5 19q4 12 3 28v275z" />
    <glyph glyph-name="afii10081" unicode="&#x43f;" horiz-adv-x="321" 
d="M290 547v-547h-101v467h-57v-467h-101v547h259z" />
    <glyph glyph-name="afii10082" unicode="&#x440;" horiz-adv-x="335" 
d="M40 547h101v-36q13 12 26 22q11 8 25.5 15t28.5 7q21 0 35.5 -10.5t24 -26t14 -34.5t4.5 -36v-349q0 -17 -4.5 -36t-14 -34.5t-24 -26t-35.5 -10.5q-14 0 -28.5 7t-25.5 15q-13 10 -26 22v-224h-101v735zM141 120q0 -12 9.5 -22.5t20.5 -10.5t19 9.5t8 23.5v307
q0 14 -8 23.5t-19 9.5t-20.5 -9.5t-9.5 -23.5v-307z" />
    <glyph glyph-name="afii10083" unicode="&#x441;" horiz-adv-x="315" 
d="M133 126q0 -15 4 -29.5t24 -14.5q17 0 23 9.5t6 34.5v76h101v-53q0 -46 -8.5 -76t-25 -48t-40.5 -25.5t-56 -7.5q-27 0 -51 8t-41 27t-27 50t-10 77v239q0 46 10 77t27 50t41 27t51 8q32 0 56 -7.5t40.5 -25.5t25 -48t8.5 -76v-43h-101v66q0 25 -6 34.5t-23 9.5
q-20 0 -24 -14.5t-4 -29.5v-295z" />
    <glyph glyph-name="afii10084" unicode="&#x442;" horiz-adv-x="252" 
d="M249 458h-72v-458h-102v458h-72v88h246v-88z" />
    <glyph glyph-name="afii10085" unicode="&#x443;" horiz-adv-x="310" 
d="M16 -104q2 -1 6 -1q4 -1 18 -1q16 1 28 10t20 21.5t12.5 28t4.5 30.5l-93 563h99l40 -336l2 -28h4l2 28l40 336h99l-97 -588q-4 -29 -15 -56.5t-29 -49.5t-42 -35.5t-54 -13.5h-12t-15 1q-9 0 -18 1v90z" />
    <glyph glyph-name="afii10086" unicode="&#x444;" horiz-adv-x="479" 
d="M189 36q-13 -12 -26 -22q-11 -8 -25.5 -15t-28.5 -7q-21 0 -35.5 10.5t-24 26t-14 34.5t-4.5 36v349q0 17 4.5 36t14 34.5t24 26t35.5 10.5q14 0 28.5 -7t25.5 -15q13 -10 26 -22v224h101v-224q13 12 26 22q11 8 25.5 15t28.5 7q21 0 35.5 -10.5t24 -26t14 -34.5t4.5 -36
v-349q0 -17 -4.5 -36t-14 -34.5t-24 -26t-35.5 -10.5q-14 0 -28.5 7t-25.5 15q-13 10 -26 22v-224h-101v224zM290 120q0 -12 9.5 -22.5t20.5 -10.5t19 9.5t8 23.5v307q0 14 -8 23.5t-19 9.5t-20.5 -9.5t-9.5 -23.5v-307zM189 427q0 14 -9.5 23.5t-20.5 9.5t-19 -9.5
t-8 -23.5v-307q0 -14 8 -23.5t19 -9.5t20.5 10.5t9.5 22.5v307z" />
    <glyph glyph-name="afii10087" unicode="&#x445;" horiz-adv-x="302" 
d="M102 282l-86 265h95l36 -128l3 -15h2l3 15l36 128h95l-86 -265l94 -282h-98l-41 138l-3 15h-2l-3 -15l-41 -138h-98z" />
    <glyph glyph-name="afii10088" unicode="&#x446;" horiz-adv-x="351" 
d="M299 80h49v-204h-101v124h-207v547h101v-467h57v467h101v-467z" />
    <glyph glyph-name="afii10089" unicode="&#x447;" horiz-adv-x="337" 
d="M163 290q8 0 13.5 4t10.5 9t9 13v231h101v-547h-101v246q-3 -2 -11.5 -10.5t-19.5 -18.5t-24.5 -17.5t-26.5 -7.5q-20 0 -34.5 10.5t-23.5 26t-13.5 34.5t-4.5 36v248h101v-233q0 -16 7.5 -20t16.5 -4z" />
    <glyph glyph-name="afii10090" unicode="&#x448;" horiz-adv-x="479" 
d="M31 0v547h101v-467h57v467h101v-467h57v467h101v-547h-417z" />
    <glyph glyph-name="afii10091" unicode="&#x449;" horiz-adv-x="499" 
d="M31 0v547h101v-467h57v467h101v-467h57v467h101v-467h49v-204h-101v124h-365z" />
    <glyph glyph-name="afii10092" unicode="&#x44a;" horiz-adv-x="370" 
d="M1 547h174v-200h34q49 0 75.5 -22.5t38.5 -48.5q14 -31 16 -70v-65q-2 -40 -16 -71q-12 -26 -38.5 -48t-75.5 -22h-129v459h-79v88zM244 203q1 16 -3 28q-3 11 -10.5 19.5t-21.5 8.5h-34v-170h34q14 0 21.5 8t10.5 19q4 12 3 28v59z" />
    <glyph glyph-name="afii10093" unicode="&#x44b;" horiz-adv-x="450" 
d="M321 0v547h98v-547h-98zM160 0q49 0 75.5 22t38.5 48q14 31 16 71v65q-2 39 -16 70q-12 26 -38.5 48.5t-75.5 22.5h-34v200h-95v-547h129zM195 203v-59q1 -16 -3 -28q-3 -11 -10.5 -19t-21.5 -8h-34v170h34q14 0 21.5 -8.5t10.5 -19.5q4 -12 3 -28z" />
    <glyph glyph-name="afii10094" unicode="&#x44c;" horiz-adv-x="321" 
d="M31 0v547h95v-200h34q49 0 75.5 -22.5t38.5 -48.5q14 -31 16 -70v-65q-2 -40 -16 -71q-12 -26 -38.5 -48t-75.5 -22h-129zM195 203q1 16 -3 28q-3 11 -10.5 19.5t-21.5 8.5h-34v-170h34q14 0 21.5 8t10.5 19q4 12 3 28v59z" />
    <glyph glyph-name="afii10095" unicode="&#x44d;" horiz-adv-x="315" 
d="M190 421q0 15 -4 29.5t-24 14.5q-17 0 -23 -9.5t-6 -34.5v-66h-101v43q0 46 8.5 76t25 48t40.5 25.5t56 7.5q27 0 51 -8t41 -27t27 -50t10 -77v-239q0 -46 -10 -77t-27 -50t-41 -27t-51 -8q-32 0 -56 7.5t-40.5 25.5t-25 48t-8.5 76v53h101v-76q0 -25 6 -34.5t23 -9.5
q20 0 24 14.5t4 29.5v113h-57v79h57v103z" />
    <glyph glyph-name="afii10096" unicode="&#x44e;" horiz-adv-x="480" 
d="M132 334h57v77q2 40 16 72q12 27 38 49.5t75 22.5t75.5 -22.5t38.5 -48.5q14 -31 16 -70v-281q-2 -40 -16 -71q-12 -26 -38.5 -48t-75.5 -22t-75 22.5t-38 49.5q-14 32 -16 72v119h-57v-255h-101v547h101v-213zM353 411q1 16 -3 28q-3 11 -10.5 19.5t-21.5 8.5t-21 -8.5
t-10 -19.5q-4 -12 -3 -28v-275q-1 -16 3 -28q3 -11 10 -19t21 -8t21.5 8t10.5 19q4 12 3 28v275z" />
    <glyph glyph-name="afii10097" unicode="&#x44f;" horiz-adv-x="321" 
d="M291 547v-547h-95v200h-29l-45 -200h-97l56 226q-19 15 -28.5 34.5t-14.5 37.5q-5 21 -6 43v65q2 39 16 70q6 13 15.5 26t23 23t32 16t43.5 6h129zM127 344q-1 -16 3 -28q3 -11 10.5 -19.5t21.5 -8.5h34v170h-34q-14 0 -21.5 -8.5t-10.5 -19.5q-4 -12 -3 -27v-59z" />
    <glyph glyph-name="afii10071" unicode="&#x451;" horiz-adv-x="322" 
d="M293 196v-63q-2 -40 -16 -71q-12 -26 -39 -48t-76 -22t-75.5 22.5t-38.5 49.5q-14 32 -16 72v275q2 40 17 72q12 27 38.5 49.5t75.5 22.5t75.5 -22.5t38.5 -48.5q14 -31 16 -70v-159h-167v-119q1 -16 5 -28q4 -11 11 -19t21 -8t21.5 8t10.5 19q4 12 4 28v60h94zM126 334
h73v77q0 16 -4 28q-3 11 -10.5 19.5t-21.5 8.5t-21 -8.5t-11 -19.5q-4 -12 -5 -28v-77zM45 735h93v-98h-93v98zM186 735h93v-98h-93v98z" />
    <glyph glyph-name="afii10100" unicode="&#x453;" horiz-adv-x="266" 
d="M264 459h-119v-459h-105v547h224v-88zM267 727l-79 -90h-78l52 90h105z" />
    <glyph glyph-name="afii10101" unicode="&#x454;" horiz-adv-x="315" 
d="M133 318h57v-79h-57v-113q0 -15 4 -29.5t24 -14.5q17 0 23 9.5t6 34.5v76h101v-53q0 -46 -8.5 -76t-25 -48t-40.5 -25.5t-56 -7.5q-27 0 -51 8t-41 27t-27 50t-10 77v239q0 46 10 77t27 50t41 27t51 8q32 0 56 -7.5t40.5 -25.5t25 -48t8.5 -76v-43h-101v66q0 25 -6 34.5
t-23 9.5q-20 0 -24 -14.5t-4 -29.5v-103z" />
    <glyph glyph-name="afii10102" unicode="&#x455;" horiz-adv-x="308" 
d="M35 407q0 24 5.5 50t19.5 47.5t38 35.5t60 15q44 1 70 -13.5t39 -36.5t16.5 -48.5t3.5 -49.5h-94q0 10 -0.5 21t-4 20.5t-10 16t-18.5 6.5q-10 0 -16 -6.5t-9.5 -15.5t-4.5 -20.5t-1 -21.5q0 -13 6 -26t15.5 -25t21 -24t23.5 -23q16 -16 33 -34t30 -38.5t21.5 -44
t8.5 -50.5q0 -26 -6.5 -52.5t-22 -48t-40 -35.5t-60.5 -14q-46 0 -74 18t-43 43.5t-19.5 54.5t-4.5 51h94q0 -11 1.5 -25.5t6.5 -27t14 -21.5t25 -9q22 0 28.5 21t6.5 45q0 25 -20 49.5t-43 47.5q-18 17 -35 34t-30.5 37t-22 43.5t-8.5 53.5z" />
    <glyph glyph-name="afii10103" unicode="&#x456;" horiz-adv-x="181" 
d="M40 0v547h101v-547h-101zM40 735h101v-101h-101v101z" />
    <glyph glyph-name="afii10104" unicode="&#x457;" horiz-adv-x="182" 
d="M40 0v547h101v-547h-101zM-26 735h93v-98h-93v98zM115 735h93v-98h-93v98z" />
    <glyph glyph-name="afii10105" unicode="&#x458;" horiz-adv-x="178" 
d="M37 735h101v-101h-101v101zM37 547v-560v-23t-2.5 -26.5t-9 -21.5t-19.5 -9q-9 0 -19 2q-4 1 -9 2v-93q4 -2 10 -3q10 -3 34 -3q43 0 67 19t34.5 46.5t12.5 57.5t2 51v561h-101z" />
    <glyph glyph-name="afii10106" unicode="&#x459;" horiz-adv-x="514" 
d="M218 0v467h-37l-11 -299q-1 -21 -3 -51t-12.5 -57.5t-34 -46.5t-66.5 -19q-24 0 -34 3q-6 1 -10 3v93q5 -1 9 -2q10 -2 19 -2q13 0 19 9t8.5 21.5t3 26.5t0.5 23l11 378h239v-200h34q49 0 75.5 -22.5t38.5 -48.5q14 -31 16 -70v-65q-2 -40 -16 -71q-12 -26 -38.5 -48
t-75.5 -22h-135zM388 203q1 16 -3 28q-3 11 -10.5 19.5t-21.5 8.5h-34v-170h34q14 0 21.5 8t10.5 19q4 12 3 28v59z" />
    <glyph glyph-name="afii10107" unicode="&#x45a;" horiz-adv-x="486" 
d="M189 0v255h-57v-255h-101v547h101v-213h57v213h101v-200h34q49 0 75.5 -22.5t38.5 -48.5q14 -31 16 -70v-65q-2 -40 -16 -71q-12 -26 -38.5 -48t-75.5 -22h-135zM359 203q1 16 -3 28q-3 11 -10.5 19.5t-21.5 8.5h-34v-170h34q14 0 21.5 8t10.5 19q4 12 3 28v59z" />
    <glyph glyph-name="afii10109" unicode="&#x45c;" horiz-adv-x="313" 
d="M141 547v-143v-18h5l6 18l49 143h91l-73 -178l92 -369h-97l-50 221l-2 8h-5l-3 -8l-13 -32v-189h-101v547h101zM287 727l-79 -90h-78l52 90h105z" />
    <glyph glyph-name="afii10110" unicode="&#x45e;" horiz-adv-x="310" 
d="M16 -104q2 -1 6 -1q4 -1 18 -1q16 1 28 10t20 21.5t12.5 28t4.5 30.5l-93 563h99l40 -336l2 -28h4l2 28l40 336h99l-97 -588q-4 -29 -15 -56.5t-29 -49.5t-42 -35.5t-54 -13.5h-12t-15 1q-9 0 -18 1v90zM266 683q-13 -13 -30 -24q-14 -9 -34 -16t-46 -7t-46.5 7t-34.5 16
q-17 11 -29 24l54 46q5 -7 14 -12q7 -5 17.5 -8t24.5 -3t24.5 3t18.5 8q9 5 15 12z" />
    <glyph glyph-name="afii10193" unicode="&#x45f;" horiz-adv-x="380" 
d="M136 0h-96v547h108v-436h84v436h108v-547h-96v-124h-108v124z" />
    <glyph glyph-name="afii10050" unicode="&#x490;" horiz-adv-x="301" 
d="M148 624v-624h-108v735h156v101h101v-212h-149z" />
    <glyph glyph-name="afii10098" unicode="&#x491;" horiz-adv-x="266" 
d="M163 547v101h101v-189h-119v-459h-105v547h123z" />
    <glyph glyph-name="endash" unicode="&#x2013;" horiz-adv-x="394" 
d="M36 412h322v-95h-322v95z" />
    <glyph glyph-name="emdash" unicode="&#x2014;" horiz-adv-x="475" 
d="M36 412h403v-95h-403v95z" />
    <glyph glyph-name="quoteleft" unicode="&#x2018;" horiz-adv-x="151" 
d="M24 605l55 130h50l-35 -130h35v-111h-105v111z" />
    <glyph glyph-name="quoteright" unicode="&#x2019;" horiz-adv-x="151" 
d="M127 624l-55 -130h-50l35 130h-35v111h105v-111z" />
    <glyph glyph-name="quotesinglbase" unicode="&#x201a;" horiz-adv-x="151" 
d="M127 0l-55 -130h-50l35 130h-35v111h105v-111z" />
    <glyph glyph-name="quotedblleft" unicode="&#x201c;" horiz-adv-x="305" 
d="M174 605l55 130h50l-35 -130h35v-111h-105v111zM26 605l55 130h50l-35 -130h35v-111h-105v111z" />
    <glyph glyph-name="quotedblright" unicode="&#x201d;" horiz-adv-x="305" 
d="M131 624l-55 -130h-50l35 130h-35v111h105v-111zM279 624l-55 -130h-50l35 130h-35v111h105v-111z" />
    <glyph glyph-name="quotedblbase" unicode="&#x201e;" horiz-adv-x="305" 
d="M131 0l-55 -130h-50l35 130h-35v111h105v-111zM279 0l-55 -130h-50l35 130h-35v111h105v-111z" />
    <glyph glyph-name="bullet" unicode="&#x2022;" horiz-adv-x="324" 
d="M40 399q0 25 9.5 47t26 38.5t39 26t48.5 9.5q25 0 47 -9.5t38.5 -26t26 -38.5t9.5 -47q0 -26 -9.5 -48.5t-26 -39t-38.5 -26t-47 -9.5q-26 0 -48.5 9.5t-39 26t-26 39t-9.5 48.5z" />
    <glyph glyph-name="ellipsis" unicode="&#x2026;" horiz-adv-x="471" 
d="M26 111h105v-111h-105v111zM183 111h105v-111h-105v111zM340 111h105v-111h-105v111z" />
    <glyph glyph-name="Euro" unicode="&#x20ac;" horiz-adv-x="397" 
d="M26 468h52v116q2 44 18 79q7 15 17 29.5t25 25.5t36 18t48 7t47.5 -7t35.5 -18t25.5 -25.5t17.5 -29.5q16 -35 18 -79v-41h-101v41q0 15 -4 27q-4 10 -12 18.5t-25 8.5q-14 0 -21.5 -8.5t-11.5 -18.5q-4 -12 -5 -27v-116h114v-67h-114v-67h114v-67h-114v-116q1 -16 5 -27
t11.5 -19t21.5 -8q17 0 25 8t12 19t4 27v41h101v-41q-2 -45 -18 -80q-7 -15 -17.5 -29t-25.5 -25.5t-35.5 -18t-47.5 -6.5t-48 6.5t-36 18t-25 25.5t-17 29q-16 35 -18 80v116h-52v67h52v67h-52v67z" />
    <glyph glyph-name="uni20B4" unicode="&#x20b4;" horiz-adv-x="354" 
d="M255 401q-8 -15 -16.5 -30t-16.5 -29l-4 -8h103v-67h-140q-20 -37 -33 -71t-13 -64q0 -17 10 -29t34 -12q17 0 27 11t15.5 28.5t7 40t1.5 45.5l106 -10q0 -41 -5 -79.5t-21.5 -68.5t-47.5 -48t-83 -18q-44 0 -73 11.5t-46 31.5t-24 46.5t-7 55.5q0 32 12 65t32 65h-54v67
h71l38 67h-109v67h146q21 38 35.5 74t14.5 69q0 14 -8 23t-29 10q-14 0 -22 -9.5t-13 -25t-6.5 -34.5t-1.5 -37l-106 10q0 31 5.5 65.5t21.5 64t45.5 48t78.5 17.5q38 -1 65 -13t44 -31t24.5 -42.5t7.5 -45.5q0 -36 -9 -72t-24 -71h33v-67h-66z" />
    <glyph glyph-name="uni20B8" unicode="&#x20b8;" horiz-adv-x="316" 
d="M2 534v67h312v-67h-102v-534h-108v534h-102zM2 668v67h312v-67h-312z" />
    <glyph glyph-name="uni20BA" unicode="&#x20ba;" 
d="M63 160h-52v67h52v67h-52v67h52v374h108q35 0 69 -10.5t61 -36t43.5 -68t16.5 -105.5t-16.5 -105.5t-43.5 -68t-61 -36.5t-69 -11v-67h114v-67h-114v-160h-108v160zM171 404q25 0 41 5t25 17.5t12 33t3 51.5t-3 52.5t-12 35t-25 20t-41 6.5v-221z" />
    <glyph glyph-name="uni20BB" unicode="&#x20bb;" 
d="M63 160h-52v67h52v67h-52v67h52v374h108q35 0 69 -10.5t61 -36t43.5 -68t16.5 -105.5t-16.5 -105.5t-43.5 -68t-61 -36.5t-69 -11v-67h114v-67h-114v-160h-108v160zM171 404q25 0 41 5t25 17.5t12 33t3 51.5t-3 52.5t-12 35t-25 20t-41 6.5v-221z" />
    <glyph glyph-name="uni20BC" unicode="&#x20bc;" 
d="M63 160h-52v67h52v67h-52v67h52v374h108q35 0 69 -10.5t61 -36t43.5 -68t16.5 -105.5t-16.5 -105.5t-43.5 -68t-61 -36.5t-69 -11v-67h114v-67h-114v-160h-108v160zM171 404q25 0 41 5t25 17.5t12 33t3 51.5t-3 52.5t-12 35t-25 20t-41 6.5v-221z" />
    <glyph glyph-name="uni20BD" unicode="&#x20bd;" 
d="M63 160h-52v67h52v67h-52v67h52v374h108q35 0 69 -10.5t61 -36t43.5 -68t16.5 -105.5t-16.5 -105.5t-43.5 -68t-61 -36.5t-69 -11v-67h114v-67h-114v-160h-108v160zM171 404q25 0 41 5t25 17.5t12 33t3 51.5t-3 52.5t-12 35t-25 20t-41 6.5v-221z" />
    <glyph glyph-name="uni20BE" unicode="&#x20be;" 
d="M63 160h-52v67h52v67h-52v67h52v374h108q35 0 69 -10.5t61 -36t43.5 -68t16.5 -105.5t-16.5 -105.5t-43.5 -68t-61 -36.5t-69 -11v-67h114v-67h-114v-160h-108v160zM171 404q25 0 41 5t25 17.5t12 33t3 51.5t-3 52.5t-12 35t-25 20t-41 6.5v-221z" />
    <glyph glyph-name="uni20BF" unicode="&#x20bf;" 
d="M63 160h-52v67h52v67h-52v67h52v374h108q35 0 69 -10.5t61 -36t43.5 -68t16.5 -105.5t-16.5 -105.5t-43.5 -68t-61 -36.5t-69 -11v-67h114v-67h-114v-160h-108v160zM171 404q25 0 41 5t25 17.5t12 33t3 51.5t-3 52.5t-12 35t-25 20t-41 6.5v-221z" />
    <glyph glyph-name="uni20C0" unicode="&#x20c0;" 
d="M63 160h-52v67h52v67h-52v67h52v374h108q35 0 69 -10.5t61 -36t43.5 -68t16.5 -105.5t-16.5 -105.5t-43.5 -68t-61 -36.5t-69 -11v-67h114v-67h-114v-160h-108v160zM171 404q25 0 41 5t25 17.5t12 33t3 51.5t-3 52.5t-12 35t-25 20t-41 6.5v-221z" />
    <glyph glyph-name="uni20C1" unicode="&#x20c1;" 
d="M63 160h-52v67h52v67h-52v67h52v374h108q35 0 69 -10.5t61 -36t43.5 -68t16.5 -105.5t-16.5 -105.5t-43.5 -68t-61 -36.5t-69 -11v-67h114v-67h-114v-160h-108v160zM171 404q25 0 41 5t25 17.5t12 33t3 51.5t-3 52.5t-12 35t-25 20t-41 6.5v-221z" />
    <glyph glyph-name="uni20C2" unicode="&#x20c2;" 
d="M63 160h-52v67h52v67h-52v67h52v374h108q35 0 69 -10.5t61 -36t43.5 -68t16.5 -105.5t-16.5 -105.5t-43.5 -68t-61 -36.5t-69 -11v-67h114v-67h-114v-160h-108v160zM171 404q25 0 41 5t25 17.5t12 33t3 51.5t-3 52.5t-12 35t-25 20t-41 6.5v-221z" />
    <glyph glyph-name="uni20C3" unicode="&#x20c3;" 
d="M63 160h-52v67h52v67h-52v67h52v374h108q35 0 69 -10.5t61 -36t43.5 -68t16.5 -105.5t-16.5 -105.5t-43.5 -68t-61 -36.5t-69 -11v-67h114v-67h-114v-160h-108v160zM171 404q25 0 41 5t25 17.5t12 33t3 51.5t-3 52.5t-12 35t-25 20t-41 6.5v-221z" />
    <glyph glyph-name="uni20C4" unicode="&#x20c4;" 
d="M63 160h-52v67h52v67h-52v67h52v374h108q35 0 69 -10.5t61 -36t43.5 -68t16.5 -105.5t-16.5 -105.5t-43.5 -68t-61 -36.5t-69 -11v-67h114v-67h-114v-160h-108v160zM171 404q25 0 41 5t25 17.5t12 33t3 51.5t-3 52.5t-12 35t-25 20t-41 6.5v-221z" />
    <glyph glyph-name="uni20C5" unicode="&#x20c5;" 
d="M63 160h-52v67h52v67h-52v67h52v374h108q35 0 69 -10.5t61 -36t43.5 -68t16.5 -105.5t-16.5 -105.5t-43.5 -68t-61 -36.5t-69 -11v-67h114v-67h-114v-160h-108v160zM171 404q25 0 41 5t25 17.5t12 33t3 51.5t-3 52.5t-12 35t-25 20t-41 6.5v-221z" />
    <glyph glyph-name="uni20C6" unicode="&#x20c6;" 
d="M63 160h-52v67h52v67h-52v67h52v374h108q35 0 69 -10.5t61 -36t43.5 -68t16.5 -105.5t-16.5 -105.5t-43.5 -68t-61 -36.5t-69 -11v-67h114v-67h-114v-160h-108v160zM171 404q25 0 41 5t25 17.5t12 33t3 51.5t-3 52.5t-12 35t-25 20t-41 6.5v-221z" />
    <glyph glyph-name="uni20C7" unicode="&#x20c7;" 
d="M63 160h-52v67h52v67h-52v67h52v374h108q35 0 69 -10.5t61 -36t43.5 -68t16.5 -105.5t-16.5 -105.5t-43.5 -68t-61 -36.5t-69 -11v-67h114v-67h-114v-160h-108v160zM171 404q25 0 41 5t25 17.5t12 33t3 51.5t-3 52.5t-12 35t-25 20t-41 6.5v-221z" />
    <glyph glyph-name="uni20C8" unicode="&#x20c8;" 
d="M63 160h-52v67h52v67h-52v67h52v374h108q35 0 69 -10.5t61 -36t43.5 -68t16.5 -105.5t-16.5 -105.5t-43.5 -68t-61 -36.5t-69 -11v-67h114v-67h-114v-160h-108v160zM171 404q25 0 41 5t25 17.5t12 33t3 51.5t-3 52.5t-12 35t-25 20t-41 6.5v-221z" />
    <glyph glyph-name="uni20C9" unicode="&#x20c9;" 
d="M63 160h-52v67h52v67h-52v67h52v374h108q35 0 69 -10.5t61 -36t43.5 -68t16.5 -105.5t-16.5 -105.5t-43.5 -68t-61 -36.5t-69 -11v-67h114v-67h-114v-160h-108v160zM171 404q25 0 41 5t25 17.5t12 33t3 51.5t-3 52.5t-12 35t-25 20t-41 6.5v-221z" />
    <glyph glyph-name="uni20CA" unicode="&#x20ca;" 
d="M63 160h-52v67h52v67h-52v67h52v374h108q35 0 69 -10.5t61 -36t43.5 -68t16.5 -105.5t-16.5 -105.5t-43.5 -68t-61 -36.5t-69 -11v-67h114v-67h-114v-160h-108v160zM171 404q25 0 41 5t25 17.5t12 33t3 51.5t-3 52.5t-12 35t-25 20t-41 6.5v-221z" />
    <glyph glyph-name="uni20CB" unicode="&#x20cb;" 
d="M63 160h-52v67h52v67h-52v67h52v374h108q35 0 69 -10.5t61 -36t43.5 -68t16.5 -105.5t-16.5 -105.5t-43.5 -68t-61 -36.5t-69 -11v-67h114v-67h-114v-160h-108v160zM171 404q25 0 41 5t25 17.5t12 33t3 51.5t-3 52.5t-12 35t-25 20t-41 6.5v-221z" />
    <glyph glyph-name="uni20CC" unicode="&#x20cc;" 
d="M63 160h-52v67h52v67h-52v67h52v374h108q35 0 69 -10.5t61 -36t43.5 -68t16.5 -105.5t-16.5 -105.5t-43.5 -68t-61 -36.5t-69 -11v-67h114v-67h-114v-160h-108v160zM171 404q25 0 41 5t25 17.5t12 33t3 51.5t-3 52.5t-12 35t-25 20t-41 6.5v-221z" />
    <glyph glyph-name="uni20CD" unicode="&#x20cd;" 
d="M63 160h-52v67h52v67h-52v67h52v374h108q35 0 69 -10.5t61 -36t43.5 -68t16.5 -105.5t-16.5 -105.5t-43.5 -68t-61 -36.5t-69 -11v-67h114v-67h-114v-160h-108v160zM171 404q25 0 41 5t25 17.5t12 33t3 51.5t-3 52.5t-12 35t-25 20t-41 6.5v-221z" />
    <glyph glyph-name="uni20CE" unicode="&#x20ce;" 
d="M63 160h-52v67h52v67h-52v67h52v374h108q35 0 69 -10.5t61 -36t43.5 -68t16.5 -105.5t-16.5 -105.5t-43.5 -68t-61 -36.5t-69 -11v-67h114v-67h-114v-160h-108v160zM171 404q25 0 41 5t25 17.5t12 33t3 51.5t-3 52.5t-12 35t-25 20t-41 6.5v-221z" />
    <glyph glyph-name="uni20CF" unicode="&#x20cf;" 
d="M63 160h-52v67h52v67h-52v67h52v374h108q35 0 69 -10.5t61 -36t43.5 -68t16.5 -105.5t-16.5 -105.5t-43.5 -68t-61 -36.5t-69 -11v-67h114v-67h-114v-160h-108v160zM171 404q25 0 41 5t25 17.5t12 33t3 51.5t-3 52.5t-12 35t-25 20t-41 6.5v-221z" />
    <glyph glyph-name="afii61352" unicode="&#x2116;" horiz-adv-x="536" 
d="M154 383l-9 34h-6v-34v-383h-99v735h96l105 -383l9 -34h6v34v383h99v-735h-96zM525 529q-1 -20 -8 -35q-6 -14 -19 -24.5t-38 -10.5t-37.5 11t-18.5 25q-7 16 -8 36v137q1 20 8 36q6 14 18.5 25t37.5 11t38 -11t19 -24q7 -16 8 -35v-141zM478 668q0 8 -2 14
q-2 5 -5.5 9.5t-10.5 4.5t-10 -4.5t-5 -9.5q-2 -6 -2 -14v-137q0 -8 2 -14q2 -5 5 -9.5t10 -4.5t10.5 4.5t5.5 9.5q2 6 2 14v137z" />
    <glyph glyph-name="trademark" unicode="&#x2122;" horiz-adv-x="458" 
d="M36 684v51h157v-51h-51v-283h-55v283h-51zM304 401l-39 219v-219h-50v334h67l33 -156h3l33 156h67v-334h-51v219l-38 -219h-25z" />
    <glyph glyph-name="minus" unicode="&#x2212;" horiz-adv-x="379" 
d="M36 401h307v-84h-307v84z" />
    <glyph glyph-name="dollar.tab" horiz-adv-x="360" 
d="M211 795v-61q30 -3 50 -15.5t33.5 -31.5t21 -42.5t10.5 -48.5l-94 -12q-3 25 -12.5 43.5t-32.5 17.5q-12 0 -19.5 -7t-12 -18t-7 -25t-2.5 -29q0 -21 8 -42.5t20 -42t27 -41t29 -39.5q16 -23 34 -48.5t33 -53t24.5 -57t9.5 -61.5q0 -33 -6 -63.5t-20 -55t-37 -41
t-57 -20.5v-106h-60v108q-33 6 -55.5 22t-36.5 39t-21.5 51.5t-8.5 59.5l94 6q1 -18 4.5 -34.5t11 -29t19 -20t28.5 -7.5q13 0 21.5 7.5t13.5 20t7.5 28.5t2.5 34q0 21 -8 42.5t-20.5 42.5t-27 40.5t-27.5 37.5q-17 23 -35 49t-33 53.5t-24.5 57.5t-9.5 61q0 27 5 53.5
t17 49.5t32.5 40t50.5 24v64h60z" />
    <glyph glyph-name="three.tab" horiz-adv-x="360" 
d="M200 628h-152v107h262v-108l-87 -200q31 -14 50.5 -38.5t30 -56.5t14 -69t3.5 -75q0 -5 -1 -21t-5.5 -38t-13 -46t-24 -44.5t-39 -33.5t-57.5 -13q-51 0 -79.5 22.5t-42.5 56t-17.5 72t-3.5 69.5h106q0 -37 2 -61t6.5 -38.5t11.5 -20t17 -5.5q13 0 20 8.5t10 22t3.5 30
t0.5 32.5v65.5t-7.5 53.5t-25 37t-53.5 16v91z" />
    <glyph glyph-name="four.tab" horiz-adv-x="360" 
d="M189 160h-167v95l158 480h108v-480h50v-95h-50v-160h-99v160zM114 255h75v230v22h-6l-6 -22z" />
    <glyph glyph-name="cent.tab" horiz-adv-x="360" 
d="M214 765v-119q23 -4 40.5 -14t29 -28t17.5 -45.5t6 -66.5v-43h-92v66q0 25 -9.5 34.5t-26.5 9.5q-20 0 -27.5 -14.5t-7.5 -29.5v-295q0 -15 7.5 -29.5t27.5 -14.5q17 0 26.5 9.5t9.5 34.5v76h92v-53q0 -78 -23.5 -113t-69.5 -42v-148h-60v147q-45 7 -73.5 43.5
t-28.5 117.5v239q0 80 28.5 116.5t73.5 43.5v118h60z" />
    <glyph glyph-name="eight.tab" horiz-adv-x="360" 
d="M324 157q0 -5 -1 -19t-5 -32.5t-13 -38.5t-25 -36.5t-40.5 -27.5t-59.5 -11t-59.5 11t-40.5 27.5t-25 36.5t-13 38.5t-5 32.5t-1 19v86q0 41 14 80t42 65q-25 25 -37.5 61t-12.5 74v62q0 7 2.5 32.5t16 53.5t41 50t78.5 22t78.5 -22t41 -50t16 -53.5t2.5 -32.5v-62
q0 -38 -12.5 -74t-37.5 -61q28 -26 42 -65t14 -80v-86zM219 200q0 66 -5.5 98t-33.5 32t-33.5 -32t-5.5 -98q1 -60 8.5 -84.5t30.5 -24.5q28 0 33.5 29t5.5 80zM212 547q0 51 -5.5 76t-26.5 25q-18 0 -24.5 -22t-7.5 -79q0 -58 5.5 -84.5t26.5 -26.5t26.5 26.5t5.5 84.5z
" />
    <glyph glyph-name="seven.tab" horiz-adv-x="360" 
d="M206 628h-162v107h272v-108l-108 -627h-112z" />
    <glyph glyph-name="six.tab" horiz-adv-x="360" 
d="M321 151q0 -13 -3.5 -39.5t-17.5 -53t-42.5 -46.5t-77.5 -20q-50 0 -78 20t-42 46.5t-17.5 53t-3.5 39.5v418q0 19 3 49t17 57.5t42 47.5t79 20t79 -20t42 -47.5t17 -57.5t3 -49v-46h-108q0 37 -1 61.5t-4 38.5t-9.5 20t-18.5 6q-20 0 -26.5 -19t-6.5 -61v-131
q14 8 27 13t27 5q42 0 66 -18.5t36 -43.5t15 -51.5t3 -41.5v-150zM147 119q0 -7 7 -20t26 -13q17 0 25 13t8 20v220q0 7 -8 20t-25 13t-24.5 -11t-8.5 -19v-223z" />
    <glyph glyph-name="sterling.tab" horiz-adv-x="360" 
d="M236 547q0 18 -2.5 35.5t-8.5 31t-17 21.5t-28 8q-12 0 -20.5 -7.5t-14 -19.5t-7.5 -26.5t-2 -28.5q0 -40 10.5 -81.5t23.5 -83.5l3 -12h103v-67h-85q12 -50 12 -85q0 -20 -7 -49t-21 -58q19 -9 33.5 -18.5t31.5 -10.5q14 1 26 21.5t14 71.5l92 -11q-6 -92 -40.5 -139
t-82.5 -47q-18 0 -35.5 8t-34.5 17t-33 17t-30 8t-24.5 -8t-17.5 -17q-9 -11 -14 -25l-71 39q11 25 26 47q13 18 32 35t45 22q8 23 13 49.5t5 47.5q0 19 -4 40.5t-11 44.5h-92v67h72l-3 10q-14 47 -26 91.5t-12 75.5t7 63.5t24 58.5t44.5 42.5t68.5 17.5q49 1 80.5 -16
t49.5 -44.5t25 -63t7 -72.5h-104z" />
    <glyph glyph-name="yen.tab" horiz-adv-x="360" 
d="M40 233h86v67h-86v67h72l-96 368h106l54 -235l3 -27h2l3 27l54 235h106l-96 -368h72v-67h-86v-67h86v-67h-86v-166h-108v166h-86v67z" />
    <glyph glyph-name="Euro.tab" horiz-adv-x="360" 
d="M9 468h52v116q2 44 18 79q7 15 17 29.5t25 25.5t36 18t48 7t47.5 -7t35.5 -18t25.5 -25.5t17.5 -29.5q16 -35 18 -79v-41h-101v41q0 15 -4 27q-4 10 -12 18.5t-25 8.5q-14 0 -21.5 -8.5t-11.5 -18.5q-4 -12 -5 -27v-116h114v-67h-114v-67h114v-67h-114v-116q1 -16 5 -27
t11.5 -19t21.5 -8q17 0 25 8t12 19t4 27v41h101v-41q-2 -45 -18 -80q-7 -15 -17.5 -29t-25.5 -25.5t-35.5 -18t-47.5 -6.5t-48 6.5t-36 18t-25 25.5t-17 29q-16 35 -18 80v116h-52v67h52v67h-52v67z" />
    <glyph glyph-name="nine.tab" horiz-adv-x="360" 
d="M39 584q0 13 3.5 39.5t17.5 53t42 46.5t78 20q49 0 77.5 -20t42.5 -46.5t17.5 -53t3.5 -39.5v-418q0 -20 -3 -49.5t-17 -57t-42 -47.5t-79 -20t-79 20t-42 47.5t-17 57t-3 49.5v46h108q0 -37 1 -61.5t4 -38.5t9.5 -20t18.5 -6q20 0 26.5 19t6.5 61v138q-14 -8 -27 -13
t-27 -5q-42 0 -66 18.5t-36 43.5t-15 51.5t-3 41.5v143zM213 616q0 7 -7 20t-26 13q-17 0 -25 -13t-8 -20v-213q0 -7 8 -20t25 -13t24.5 11t8.5 19v216z" />
    <glyph glyph-name="zero.tab" horiz-adv-x="360" 
d="M324 151q-2 -45 -18 -80q-7 -15 -17.5 -29t-25.5 -25.5t-35.5 -18t-47.5 -6.5t-48 6.5t-36 18t-25 25.5t-17 29q-16 35 -18 80v433q2 44 18 79q7 15 17 29.5t25 25.5t36 18t48 7t47.5 -7t35.5 -18t25.5 -25.5t17.5 -29.5q16 -35 18 -79v-433zM216 584q0 15 -4 27
q-3 10 -10.5 18.5t-21.5 8.5t-21.5 -8.5t-10.5 -18.5q-4 -12 -4 -27v-433q0 -16 4 -27q3 -11 10.5 -19t21.5 -8t21.5 8t10.5 19q4 11 4 27v433z" />
    <glyph glyph-name="one.tab" horiz-adv-x="360" 
d="M54 576v69q34 7 55.5 22t35.5 30q15 18 24 38h65v-735h-108v576h-72z" />
    <glyph glyph-name="two.tab" horiz-adv-x="360" 
d="M36 502v51q0 37 6 71.5t22 60.5t44 42t72 16q41 0 69 -14.5t44.5 -39t23.5 -58t7 -71.5q0 -56 -18.5 -120.5t-45 -127t-55.5 -116.5t-50 -89h171v-107h-293v107q50 77 90 155q17 33 33 70t29 75t21.5 75t9.5 71q0 15 -1 31t-5 29t-11 21.5t-19 8.5q-11 0 -18 -7.5
t-11 -20t-5.5 -28.5t-1.5 -34v-51h-108z" />
    <glyph glyph-name="exclam" unicode="!" horiz-adv-x="189" 
d="M42 111h105v-111h-105v111zM36 735h117l-27 -537h-63z" />
    <glyph glyph-name="five.tab" horiz-adv-x="360" 
d="M147 185q0 -56 7 -77.5t26 -21.5q17 0 25 21t8 77v164q0 23 -8.5 38.5t-25.5 15.5q-9 0 -16.5 -6t-13.5 -14.5t-9 -18t-3 -15.5h-91v387h261v-107h-168v-153q9 7 20 13q9 5 20 9t22 3q42 0 66 -20.5t36 -46.5t15 -51t3 -34v-164q0 -26 -3.5 -59t-17.5 -62.5t-42.5 -50
t-77.5 -20.5q-50 0 -78 21t-42 53.5t-17.5 71.5t-3.5 76h108v-29v0z" />
    <glyph glyph-name="uni000D" unicode="&#xd;" horiz-adv-x="154" 
 />
    <glyph glyph-name="uni20B4.tab" horiz-adv-x="360" 
d="M257 401q-8 -15 -16.5 -30t-16.5 -29l-4 -8h103v-67h-140q-20 -37 -33 -71t-13 -64q0 -17 10 -29t34 -12q17 0 27 11t15.5 28.5t7 40t1.5 45.5l106 -10q0 -41 -5 -79.5t-21.5 -68.5t-47.5 -48t-83 -18q-44 0 -73 11.5t-46 31.5t-24 46.5t-7 55.5q0 32 12 65t32 65h-54v67
h71l38 67h-109v67h146q21 38 35.5 74t14.5 69q0 14 -8 23t-29 10q-14 0 -22 -9.5t-13 -25t-6.5 -34.5t-1.5 -37l-106 10q0 31 5.5 65.5t21.5 64t45.5 48t78.5 17.5q38 -1 65 -13t44 -31t24.5 -42.5t7.5 -45.5q0 -36 -9 -72t-24 -71h33v-67h-66z" />
    </font>
</defs>
</svg>
